<svg width="32" height="32" viewBox="0 0 32 32" fill="none" xmlns="http://www.w3.org/2000/svg">
<g id="mingcute:close-line" clip-path="url(#clip0_772_7)">
<g id="Group">
<path id="Vector" fill-rule="evenodd" clip-rule="evenodd" d="M16 17.8854L23.5427 25.428C23.7941 25.6709 24.1309 25.8053 24.4805 25.8023C24.8301 25.7992 25.1645 25.659 25.4118 25.4118C25.659 25.1646 25.7992 24.8302 25.8022 24.4806C25.8053 24.131 25.6709 23.7942 25.428 23.5427L17.8853 16L25.428 8.45737C25.6709 8.2059 25.8053 7.8691 25.8022 7.5195C25.7992 7.16991 25.659 6.83549 25.4118 6.58828C25.1645 6.34107 24.8301 6.20084 24.4805 6.1978C24.1309 6.19477 23.7941 6.32916 23.5427 6.57204L16 14.1147L8.45733 6.57204C8.20473 6.33516 7.86988 6.20586 7.52364 6.21148C7.1774 6.2171 6.84692 6.35721 6.60215 6.60216C6.35737 6.84711 6.21749 7.17768 6.21212 7.52393C6.20674 7.87018 6.33628 8.20494 6.57333 8.45737L14.1147 16L6.572 23.5427C6.44465 23.6657 6.34308 23.8128 6.2732 23.9755C6.20332 24.1382 6.16654 24.3131 6.165 24.4902C6.16346 24.6672 6.1972 24.8428 6.26424 25.0066C6.33128 25.1705 6.43028 25.3194 6.55547 25.4446C6.68066 25.5698 6.82953 25.6688 6.99339 25.7358C7.15726 25.8028 7.33283 25.8366 7.50987 25.835C7.68691 25.8335 7.86187 25.7967 8.02454 25.7268C8.18721 25.657 8.33434 25.5554 8.45733 25.428L16 17.8854Z" fill="#F2672E"/>
</g>
</g>
<defs>
<clipPath id="clip0_772_7">
<rect width="32" height="32" fill="white"/>
</clipPath>
</defs>
</svg>
