<svg width="10" height="16" viewBox="0 0 10 16" fill="none" xmlns="http://www.w3.org/2000/svg">
<g clip-path="url(#clip0_343_1209)">
<path d="M8.53751 1.33332C8.77032 1.58314 8.901 1.92107 8.901 2.27332C8.901 2.62557 8.77032 2.9635 8.53751 3.21332L4.11251 7.99999L8.53751 12.72C8.77032 12.9698 8.901 13.3077 8.901 13.66C8.901 14.0122 8.77032 14.3502 8.53751 14.6C8.42131 14.725 8.28306 14.8242 8.13073 14.8918C7.97841 14.9595 7.81503 14.9944 7.65001 14.9944C7.485 14.9944 7.32161 14.9595 7.16929 14.8918C7.01697 14.8242 6.87871 14.725 6.76251 14.6L1.46251 8.94665C1.34535 8.8227 1.25236 8.67524 1.1889 8.51276C1.12544 8.35028 1.09276 8.176 1.09276 7.99999C1.09276 7.82397 1.12544 7.6497 1.1889 7.48722C1.25236 7.32474 1.34535 7.17727 1.46251 7.05332L6.76251 1.33332C6.87871 1.20835 7.01697 1.10916 7.16929 1.04147C7.32161 0.973775 7.485 0.938923 7.65001 0.938923C7.81503 0.938923 7.97841 0.973775 8.13073 1.04147C8.28306 1.10916 8.42131 1.20835 8.53751 1.33332Z" fill="#333333"/>
</g>
<defs>
<clipPath id="clip0_343_1209">
<rect width="16" height="10" fill="white" transform="matrix(4.37114e-08 -1 -1 -4.37114e-08 10 16)"/>
</clipPath>
</defs>
</svg>
