<svg width="10" height="16" viewBox="0 0 10 16" fill="none" xmlns="http://www.w3.org/2000/svg">
<g id="uil:angle-down" clip-path="url(#clip0_343_1212)">
<path id="Vector" d="M1.46249 1.33332C1.22968 1.58314 1.099 1.92107 1.099 2.27332C1.099 2.62557 1.22968 2.9635 1.46249 3.21332L5.88749 7.99999L1.46249 12.72C1.22968 12.9698 1.099 13.3077 1.099 13.66C1.099 14.0122 1.22968 14.3502 1.46249 14.6C1.57869 14.725 1.71694 14.8242 1.86927 14.8918C2.02159 14.9595 2.18497 14.9944 2.34999 14.9944C2.515 14.9944 2.67839 14.9595 2.83071 14.8918C2.98303 14.8242 3.12129 14.725 3.23749 14.6L8.53749 8.94665C8.65465 8.8227 8.74764 8.67524 8.8111 8.51276C8.87456 8.35028 8.90724 8.176 8.90724 7.99999C8.90724 7.82397 8.87456 7.6497 8.8111 7.48722C8.74764 7.32474 8.65465 7.17727 8.53749 7.05332L3.23749 1.33332C3.12129 1.20835 2.98303 1.10916 2.83071 1.04147C2.67839 0.973775 2.515 0.938923 2.34999 0.938923C2.18497 0.938923 2.02159 0.973775 1.86927 1.04147C1.71694 1.10916 1.57869 1.20835 1.46249 1.33332Z" fill="#333333"/>
</g>
<defs>
<clipPath id="clip0_343_1212">
<rect width="16" height="10" fill="white" transform="translate(0 16) rotate(-90)"/>
</clipPath>
</defs>
</svg>
