<svg width="16" height="16" viewBox="0 0 16 16" fill="none" xmlns="http://www.w3.org/2000/svg">
<path d="M8.00006 6.33333C7.93437 6.33302 7.86927 6.34584 7.8086 6.37102C7.74792 6.39621 7.69289 6.43326 7.64673 6.48L5.33339 8.81333C5.27247 8.9073 5.24485 9.01901 5.25498 9.13054C5.2651 9.24208 5.31238 9.34699 5.38923 9.42845C5.46609 9.50992 5.56806 9.56322 5.67882 9.57982C5.78958 9.59642 5.9027 9.57535 6.00006 9.52L8.00006 7.52L10.0001 9.52C10.0974 9.57535 10.2105 9.59642 10.3213 9.57982C10.4321 9.56322 10.534 9.50992 10.6109 9.42845C10.6877 9.34699 10.735 9.24208 10.7451 9.13054C10.7553 9.01901 10.7277 8.9073 10.6667 8.81333L8.33339 6.48C8.24505 6.39039 8.12581 6.33792 8.00006 6.33333Z" fill="white"/>
</svg>
