<svg width="17" height="16" viewBox="0 0 17 16" fill="none" xmlns="http://www.w3.org/2000/svg">
<path d="M8.49908 9.66656C8.43339 9.66687 8.3683 9.65406 8.30762 9.62887C8.24695 9.60369 8.19191 9.56664 8.14575 9.51989L5.83242 7.18656C5.77149 7.09259 5.74388 6.98088 5.754 6.86935C5.76413 6.75781 5.8114 6.65291 5.88826 6.57144C5.96511 6.48998 6.06709 6.43667 6.17784 6.42007C6.2886 6.40347 6.40173 6.42454 6.49908 6.47989L8.49908 8.4799L10.4991 6.47989C10.5964 6.42454 10.7096 6.40347 10.8203 6.42007C10.9311 6.43667 11.0331 6.48998 11.1099 6.57144C11.1868 6.65291 11.234 6.75781 11.2442 6.86935C11.2543 6.98088 11.2267 7.09259 11.1658 7.18656L8.83242 9.51989C8.74408 9.60951 8.62483 9.66197 8.49908 9.66656Z" fill="black"/>
</svg>
