<svg width="24" height="24" viewBox="0 0 24 24" fill="none" xmlns="http://www.w3.org/2000/svg">
<g id="ant-design:fire-filled" clip-path="url(#clip0_343_1538)">
<path id="Vector" d="M18.8629 11.146C18.4493 10.2669 17.848 9.47789 17.0966 8.82831L16.4765 8.29114C16.4555 8.2734 16.4302 8.26082 16.4028 8.25448C16.3753 8.24815 16.3467 8.24827 16.3194 8.25482C16.292 8.26138 16.2668 8.27417 16.2459 8.29208C16.225 8.30999 16.2091 8.33246 16.1996 8.35753L15.9226 9.10795C15.75 9.57873 15.4325 10.0596 14.9829 10.5323C14.9531 10.5625 14.919 10.5706 14.8956 10.5726C14.8721 10.5746 14.8359 10.5706 14.804 10.5424C14.7741 10.5183 14.7592 10.482 14.7614 10.4458C14.8402 9.2347 14.4567 7.86865 13.6172 6.3819C12.9226 5.14662 11.9574 4.18294 10.7514 3.51099L9.87144 3.02211C9.75639 2.95773 9.60937 3.04222 9.61576 3.16897L9.66264 4.13466C9.6946 4.79455 9.61363 5.37798 9.42187 5.86284C9.1875 6.45633 8.85085 7.00758 8.42045 7.5025C8.12093 7.84645 7.78144 8.15755 7.40838 8.42996C6.50988 9.08213 5.77929 9.91779 5.27131 10.8744C4.76457 11.8393 4.50062 12.9016 4.5 13.9786C4.5 14.9282 4.69815 15.8477 5.0902 16.7148C5.46875 17.5496 6.01504 18.3073 6.69886 18.9459C7.3892 19.5897 8.19034 20.0967 9.08309 20.4488C10.0078 20.8149 10.9879 21 12 21C13.0121 21 13.9922 20.8149 14.9169 20.4508C15.8074 20.1008 16.6173 19.5903 17.3011 18.9479C17.9915 18.3041 18.5327 17.5517 18.9098 16.7168C19.3012 15.852 19.5021 14.9211 19.5 13.9807C19.5 12.9989 19.2869 12.0453 18.8629 11.146Z" fill="#F2672E"/>
</g>
<defs>
<clipPath id="clip0_343_1538">
<rect width="24" height="24" fill="white"/>
</clipPath>
</defs>
</svg>
