<svg width="24" height="24" viewBox="0 0 24 24" fill="none" xmlns="http://www.w3.org/2000/svg">
<g id="streamline:shipping-box-2-box-package-label-delivery-shipment-shipping-3d" clip-path="url(#clip0_1315_112)">
<g id="Group">
<path id="Vector" d="M12.0003 0.857178V7.71432M14.5717 18.8572H18.8574M0.857422 7.71432H23.1431V21.4286C23.1431 21.8833 22.9625 22.3193 22.641 22.6408C22.3195 22.9623 21.8835 23.1429 21.4288 23.1429H2.57171C2.11705 23.1429 1.68102 22.9623 1.35952 22.6408C1.03803 22.3193 0.857422 21.8833 0.857422 21.4286V7.71432Z" stroke="#333333" stroke-linecap="round" stroke-linejoin="round"/>
<path id="Vector_2" d="M0.857422 7.71432L3.42885 2.76004C3.70607 2.20164 4.13028 1.7294 4.65586 1.39412C5.18144 1.05883 5.78849 0.873196 6.41171 0.857178H17.5888C18.2267 0.857516 18.8518 1.03579 19.3939 1.37194C19.936 1.7081 20.3736 2.18881 20.6574 2.76004L23.1431 7.71432" stroke="#333333" stroke-linecap="round" stroke-linejoin="round"/>
</g>
</g>
<defs>
<clipPath id="clip0_1315_112">
<rect width="24" height="24" fill="white"/>
</clipPath>
</defs>
</svg>
