<svg width="48" height="31" viewBox="0 0 48 31" fill="none" xmlns="http://www.w3.org/2000/svg">
<g id="brandico:mastercard" clip-path="url(#clip0_343_1497)">
<path id="Vector" d="M2.23349 0.242236C1.00037 0.242236 0 1.25119 0 2.49608V28.4072C0 29.6518 1.00051 30.661 2.23349 30.661H45.7666C46.9997 30.661 48 29.652 48 28.4071V2.49603C48 1.25133 46.9995 0.242188 45.7666 0.242188H2.23344L2.23349 0.242236ZM15.7395 3.90382C18.4794 3.90382 20.9957 4.86574 22.971 6.47251C21.3091 7.97305 20.0696 9.94451 19.458 12.1791H20.4165C20.981 10.3356 22.0064 8.69439 23.358 7.39282C24.7096 8.69439 25.735 10.3356 26.2995 12.1791H27.273C26.653 9.95628 25.4117 7.99659 23.751 6.50583C25.7301 4.87867 28.2563 3.90377 31.008 3.90377C37.358 3.90377 42.5055 9.09879 42.5055 15.5076C42.5055 21.9164 37.358 27.1114 31.008 27.1114C28.2106 27.1114 25.6454 26.1038 23.652 24.4277C25.4352 22.8622 26.7498 20.7635 27.351 18.376H26.4134C25.8796 20.3799 24.8052 22.1621 23.358 23.5558C21.9108 22.1621 20.8378 20.3799 20.304 18.376H19.4114C20.0161 20.7289 21.3136 22.7982 23.07 24.349C21.0802 26.0044 18.5251 26.9994 15.7394 26.9994C9.38952 26.9994 4.242 21.8294 4.242 15.4516C4.242 9.07385 9.38952 3.90382 15.7395 3.90382ZM30.1455 12.061C28.764 12.061 27.42 13.2798 27.42 15.5682C27.42 17.0856 28.146 18.0869 29.574 18.0869C29.9778 18.087 30.621 17.9204 30.621 17.9204L30.834 16.5944C30.834 16.5944 30.247 16.8941 29.844 16.8941C28.9951 16.8941 28.6545 16.2353 28.6545 15.5273C28.6545 14.091 29.3849 13.3006 30.198 13.3006C30.8077 13.3006 31.2975 13.6488 31.2975 13.6488L31.4925 12.3592C31.4925 12.3592 30.7676 12.061 30.1455 12.061ZM41.76 12.173L40.5585 12.176L40.3005 13.7715C40.3005 13.7715 39.8488 13.1523 39.1425 13.1523C38.0443 13.1523 37.1295 14.4689 37.1295 15.9829C37.1295 16.9602 37.6164 17.9189 38.6145 17.9189C39.3325 17.9189 39.7305 17.4209 39.7305 17.4209L39.678 17.8462H40.845L41.76 12.173ZM7.34698 12.1896L6.39 17.8765H7.54349L8.27251 13.5883L8.38051 17.8765H9.20549L10.7445 13.5883L10.062 17.8765H11.2875L12.2325 12.1896H10.3365L9.156 15.6786L9.09451 12.1897H7.34702L7.34698 12.1896ZM19.398 12.559C19.3719 12.5854 18.7005 16.4924 18.7005 16.9683C18.7005 17.6729 19.0919 17.9876 19.6425 17.9825C20.0371 17.9791 20.3426 17.8791 20.484 17.8372C20.4988 17.8331 20.5275 17.825 20.5275 17.825L20.676 16.8079C20.5953 16.8079 20.4763 16.8427 20.3715 16.8427C19.9604 16.8427 19.9148 16.622 19.941 16.4582L20.2725 14.383H20.898L21.0495 13.2583H20.46L20.58 12.559H19.398ZM33.3405 13.1312C32.5354 13.1312 31.9185 13.3991 31.9185 13.3991L31.7475 14.4435C31.7475 14.4435 32.257 14.2301 33.027 14.2301C33.4642 14.2301 33.7845 14.2805 33.7845 14.6478C33.7845 14.8709 33.7455 14.9536 33.7455 14.9536C33.7455 14.9536 33.3998 14.9234 33.24 14.9234C32.2247 14.9234 31.158 15.3724 31.158 16.7231C31.158 17.7874 31.8583 18.0309 32.292 18.0309C33.1204 18.0309 33.4776 17.4756 33.4965 17.4739L33.4575 17.9371H34.491L34.953 14.5949C34.9532 13.1767 33.7562 13.1311 33.3405 13.1311V13.1312ZM13.953 13.1372C13.1449 13.1372 12.525 13.4051 12.525 13.4051L12.354 14.4496C12.354 14.4496 12.8652 14.2361 13.638 14.2361C14.0768 14.2361 14.3985 14.2868 14.3985 14.6539C14.3985 14.8769 14.3595 14.9597 14.3595 14.9597C14.3595 14.9597 14.0128 14.9294 13.8525 14.9294C12.8333 14.9294 11.763 15.3777 11.763 16.7276C11.763 17.7913 12.4647 18.0355 12.9 18.0355C13.7314 18.0355 14.0899 17.4801 14.109 17.4784L14.07 17.9416H15.108L15.5715 14.601C15.5715 13.1836 14.3702 13.1372 13.953 13.1372V13.1372ZM17.619 13.1372C16.7513 13.1372 15.87 13.4907 15.87 14.6978C15.87 16.0656 17.3385 15.9274 17.3385 16.5036C17.3385 16.8882 16.9287 16.9199 16.6125 16.9199C16.0653 16.9199 15.5733 16.7291 15.5715 16.7383L15.414 17.7827C15.4423 17.7915 15.747 17.9295 16.731 17.9295C16.9952 17.9295 18.5055 17.9972 18.5055 16.4098C18.5055 14.9257 17.1075 15.2198 17.1075 14.6236C17.1075 14.3268 17.3345 14.2331 17.751 14.2331C17.9164 14.2331 18.5535 14.2861 18.5535 14.2861L18.7005 13.231C18.7005 13.2312 18.2893 13.1372 17.619 13.1372ZM23.043 13.1372C21.8372 13.1375 20.9445 14.4459 20.9445 15.9239C20.9445 17.6298 22.063 18.0355 23.016 18.0355C23.8956 18.0355 24.2835 17.8372 24.2835 17.8372L24.4935 16.6732C24.4935 16.6732 23.8243 16.9698 23.22 16.9698C21.9324 16.9698 22.158 16.0026 22.158 16.0026H24.5955C24.5955 16.0026 24.753 15.2209 24.753 14.9021C24.753 14.1068 24.3596 13.1372 23.043 13.1372ZM27.4095 13.1872C26.8663 13.1872 26.463 13.9243 26.463 13.9243L26.571 13.2477H25.443L24.6855 17.9189H25.932C26.285 15.9242 26.3495 14.3045 27.192 14.601C27.3395 13.8289 27.4825 13.5306 27.6435 13.2038C27.6435 13.2038 27.5679 13.1872 27.4095 13.1872ZM37.509 13.1872C36.9658 13.1872 36.5625 13.9243 36.5625 13.9243L36.6705 13.2477H35.5425L34.785 17.9189H36.03C36.3832 15.9242 36.4493 14.3045 37.2915 14.601C37.4392 13.8289 37.5822 13.5306 37.743 13.2038C37.743 13.2038 37.6673 13.1872 37.509 13.1872ZM23.037 14.1907C23.7218 14.1907 23.5965 14.9708 23.5965 15.0338H22.248C22.248 14.9533 22.3755 14.1907 23.037 14.1907ZM39.3315 14.2816C39.7674 14.2814 39.9915 14.5785 39.9915 15.2775C39.9915 15.9118 39.6745 16.7594 39.018 16.7594C38.5823 16.7594 38.3775 16.3963 38.3775 15.827C38.3775 14.8961 38.7996 14.2816 39.3315 14.2816ZM33.342 15.8709C33.5198 15.8711 33.5566 15.8886 33.5865 15.8967C33.5822 15.8959 33.5814 15.8968 33.5985 15.8997C33.621 16.1077 33.474 17.0834 32.763 17.0834C32.3964 17.0834 32.3025 16.7892 32.3025 16.6156C32.3025 16.2771 32.4771 15.8709 33.342 15.8709ZM13.9545 15.8754C14.1564 15.8757 14.1785 15.8984 14.2125 15.9042C14.2351 16.1122 14.0874 17.0864 13.374 17.0864C13.006 17.0864 12.9105 16.7936 12.9105 16.6202C12.9105 16.2819 13.0862 15.8754 13.9545 15.8754Z" fill="white"/>
</g>
<defs>
<clipPath id="clip0_343_1497">
<rect width="48" height="31" fill="white"/>
</clipPath>
</defs>
</svg>
