<svg width="48" height="32" viewBox="0 0 48 32" fill="none" xmlns="http://www.w3.org/2000/svg">
<g id="brandico:visa" clip-path="url(#clip0_343_1494)">
<path id="Vector" d="M1.92 0.928223C0.859824 0.928223 0 1.78781 0 2.84822V29.1522C0 30.2126 0.860256 31.0722 1.92 31.0722H46.08C47.1402 31.0722 48 30.2126 48 29.1522V2.84822C48 1.78785 47.1397 0.928223 46.08 0.928223H1.92ZM28.668 9.91171C29.8362 9.91171 30.7725 10.1698 31.3695 10.4097L30.9615 12.9762L30.6915 12.8397C30.1353 12.5998 29.4209 12.3688 28.4355 12.3852C27.2558 12.3852 26.7105 12.9114 26.7105 13.4038C26.7036 13.9585 27.3477 14.3244 28.401 14.8722C30.1394 15.7175 30.9429 16.7424 30.9315 18.0897C30.9081 20.5481 28.852 22.1367 25.6845 22.1367C24.3332 22.1219 23.0313 21.8358 22.3275 21.5052L22.7505 18.8532L23.139 19.0422C24.1286 19.4844 24.7694 19.6632 25.9755 19.6632C26.8416 19.6632 27.7711 19.3006 27.7785 18.5067C27.7841 17.9883 27.39 17.6187 26.217 17.0382C25.074 16.4716 23.5587 15.5225 23.5755 13.8207C23.5934 11.5186 25.6906 9.91171 28.668 9.91171ZM4.24498 10.2882H9.10949C9.76454 10.313 10.2934 10.5239 10.476 11.2347L11.5245 16.6467C11.5247 16.6472 11.5243 16.6492 11.5245 16.6497L11.8395 18.2712L14.793 10.2882H17.988L13.239 21.9732L10.047 21.9762L7.506 12.5472C9.0179 13.3482 10.3051 14.2749 11.0505 15.5502C10.8583 15.1467 10.6051 14.6912 10.281 14.2422C9.90365 13.7194 9.08866 13.0444 8.748 12.7572C7.56096 11.7565 5.94888 10.9484 4.20749 10.5207L4.24498 10.2882ZM19.2585 10.3017H22.383L20.4285 21.9687H17.304L19.2585 10.3017ZM36.906 10.3017H39.273L41.751 21.9687H38.91C38.91 21.9687 38.6281 20.6284 38.5365 20.2197C38.09 20.2197 34.9669 20.2152 34.6155 20.2152C34.4966 20.5311 33.9705 21.9687 33.9705 21.9687H30.756L35.3025 11.2707C35.6244 10.5105 36.1731 10.3017 36.906 10.3017ZM37.1385 13.4397C36.9848 13.8737 36.7171 14.5745 36.735 14.5437C36.735 14.5437 35.7732 17.1088 35.5215 17.7747L38.049 17.7732C37.8142 16.6607 37.5792 15.5482 37.344 14.4358L37.1385 13.4398V13.4397Z" fill="white"/>
</g>
<defs>
<clipPath id="clip0_343_1494">
<rect width="48" height="32" fill="white"/>
</clipPath>
</defs>
</svg>
