<svg width="22" height="24" viewBox="0 0 22 24" fill="none" xmlns="http://www.w3.org/2000/svg">
<path id="Vector" fill-rule="evenodd" clip-rule="evenodd" d="M10.7663 1.5C9.97065 1.5 9.20759 1.81607 8.64498 2.37868C8.08237 2.94129 7.7663 3.70435 7.7663 4.5V7.5H13.7663V4.5C13.7663 3.70435 13.4502 2.94129 12.8876 2.37868C12.325 1.81607 11.5619 1.5 10.7663 1.5ZM15.2663 7.5V4.5C15.2663 3.30653 14.7922 2.16193 13.9483 1.31802C13.1044 0.474106 11.9598 0 10.7663 0C9.57282 0 8.42823 0.474106 7.58432 1.31802C6.7404 2.16193 6.2663 3.30653 6.2663 4.5V7.5H3.8078C3.26911 7.50012 2.74834 7.6935 2.34014 8.045C1.93193 8.39651 1.66338 8.8828 1.5833 9.4155L0.0412976 19.695C-0.0385207 20.2284 -0.00235304 20.7727 0.147333 21.2908C0.29702 21.8089 0.556702 22.2887 0.908666 22.6973C1.26063 23.1059 1.69659 23.4338 2.18682 23.6587C2.67704 23.8835 3.20998 23.9999 3.7493 24H17.7833C18.3226 23.9999 18.8556 23.8835 19.3458 23.6587C19.836 23.4338 20.272 23.1059 20.6239 22.6973C20.9759 22.2887 21.2356 21.8089 21.3853 21.2908C21.535 20.7727 21.5711 20.2284 21.4913 19.695L19.9493 9.4155C19.8693 8.88305 19.6009 8.39696 19.193 8.04549C18.7851 7.69402 18.2647 7.50048 17.7263 7.5H15.2663ZM13.7663 9V11.25C13.7663 11.4489 13.8453 11.6397 13.986 11.7803C14.1266 11.921 14.3174 12 14.5163 12C14.7152 12 14.906 11.921 15.0466 11.7803C15.1873 11.6397 15.2663 11.4489 15.2663 11.25V9H17.7248C17.9043 9.00018 18.0779 9.06476 18.2139 9.18202C18.3498 9.29928 18.4392 9.46143 18.4658 9.639L20.0078 19.9155C20.0559 20.2356 20.0344 20.5623 19.9447 20.8734C19.855 21.1844 19.6993 21.4724 19.4881 21.7178C19.277 21.9631 19.0153 22.16 18.7211 22.295C18.4269 22.43 18.107 22.4999 17.7833 22.5H3.7493C3.42559 22.4999 3.10571 22.43 2.81149 22.295C2.51727 22.16 2.25565 21.9631 2.04447 21.7178C1.8333 21.4724 1.67756 21.1844 1.58787 20.8734C1.49819 20.5623 1.47667 20.2356 1.5248 19.9155L3.0668 9.639C3.09333 9.46168 3.18251 9.29973 3.31817 9.18251C3.45384 9.06528 3.62701 9.00054 3.8063 9H6.2663V11.25C6.2663 11.4489 6.34532 11.6397 6.48597 11.7803C6.62662 11.921 6.81739 12 7.0163 12C7.21521 12 7.40598 11.921 7.54663 11.7803C7.68728 11.6397 7.7663 11.4489 7.7663 11.25V9H13.7663Z" fill="#9D9D9D"/>
</svg>
