<svg width="24" height="24" viewBox="0 0 24 24" fill="none" xmlns="http://www.w3.org/2000/svg">
<g id="fluent:presence-available-24-filled">
<path id="Vector" d="M12 22C17.5225 22 22 17.5225 22 12C22 6.4775 17.5225 2 12 2C6.4775 2 2 6.4775 2 12C2 17.5225 6.4775 22 12 22ZM16.2167 10.8L11.6333 15.3833C11.399 15.6174 11.0813 15.7489 10.75 15.7489C10.4187 15.7489 10.101 15.6174 9.86667 15.3833L8.2 13.7167C7.9792 13.4797 7.85899 13.1663 7.86471 12.8425C7.87042 12.5186 8.00161 12.2097 8.23063 11.9806C8.45965 11.7516 8.76863 11.6204 9.09246 11.6147C9.4163 11.609 9.72971 11.7292 9.96667 11.95L10.75 12.7325L14.45 9.0325C14.6859 8.80491 15.0017 8.67906 15.3294 8.68207C15.6572 8.68507 15.9706 8.81668 16.2023 9.04855C16.4339 9.28042 16.5652 9.594 16.5679 9.92175C16.5706 10.2495 16.4445 10.5644 16.2167 10.8Z" fill="white"/>
</g>
</svg>
