<svg width="48" height="31" viewBox="0 0 48 31" fill="none" xmlns="http://www.w3.org/2000/svg">
<g id="cib:cc-paypal" clip-path="url(#clip0_343_1499)">
<path id="Vector" d="M15.525 15.6493C15.525 16.4789 14.7165 17.1104 13.692 17.1104C12.9255 17.1104 12.3585 16.7567 12.3585 16.091C12.3585 15.2614 13.1505 14.5957 14.1675 14.5957C14.943 14.5957 15.525 14.9836 15.525 15.6493ZM6.70797 12.3527H6.31647C6.19197 12.3527 6.06597 12.4212 6.04947 12.5362L5.69097 14.3522L6.37497 14.3314C7.29147 14.3314 7.99947 14.2298 8.16597 13.3659C8.35797 12.4542 7.64997 12.3527 6.70797 12.3527ZM30.375 12.3527H30C29.85 12.3527 29.7495 12.4212 29.733 12.5362L29.3835 14.3522L30.0495 14.3314C31.1325 14.3314 31.8825 14.127 31.8825 13.1077C31.8735 12.3869 31.0845 12.3527 30.375 12.3527ZM48 3.53481V27.4652C47.9996 28.3306 47.578 29.1605 46.8278 29.7725C46.0777 30.3845 45.0603 30.7284 43.9995 30.7287H3.99897C2.9381 30.7284 1.92079 30.3845 1.17063 29.7725C0.420479 29.1605 -0.00112832 28.3306 -0.00152588 27.4652V3.53481C-0.00112832 2.66935 0.420479 1.83944 1.17063 1.22747C1.92079 0.615508 2.9381 0.271565 3.99897 0.27124H43.9995C45.0603 0.271565 46.0777 0.615508 46.8278 1.22747C47.578 1.83944 47.9996 2.66935 48 3.53481ZM10.692 12.7394C10.692 11.3113 9.34197 10.8353 7.79997 10.8353H4.46697C4.3593 10.836 4.25568 10.8689 4.17578 10.9277C4.09587 10.9866 4.04523 11.0674 4.03347 11.1547L2.66697 18.0954C2.64147 18.2313 2.76747 18.3671 2.93397 18.3671H4.51797C4.74297 18.3671 4.95147 18.1701 4.97697 17.9792L5.35197 16.1706C5.43597 15.6811 6.45147 15.8512 6.85197 15.8512C9.23547 15.8512 10.6935 14.696 10.6935 12.7381L10.692 12.7394ZM17.709 13.3377H16.125C15.8085 13.3377 15.792 13.7122 15.7755 13.8957C15.2925 13.3182 14.592 13.2154 13.8 13.2154C11.7585 13.2154 10.2 14.6764 10.2 16.288C10.2 17.6133 11.217 18.4772 12.8415 18.4772C13.5915 18.4772 14.5245 18.1444 15.0495 17.6684C15.001 17.8059 14.9728 17.9476 14.9655 18.0905C14.9655 18.2472 15.0495 18.3622 15.2325 18.3622H16.6665C16.8915 18.3622 17.0835 18.1652 17.1255 17.9743L17.976 13.6033C18.0015 13.4736 17.8755 13.3377 17.709 13.3377ZM21.084 19.9934L26.3925 13.6975C26.4345 13.6632 26.4345 13.629 26.4345 13.5825C26.4345 13.4675 26.31 13.3451 26.1675 13.3451H24.567C24.4925 13.3475 24.4198 13.3641 24.3546 13.3937C24.2895 13.4232 24.2338 13.4648 24.192 13.5152L21.984 16.1669L21.0675 13.618C21.033 13.5404 20.9709 13.4731 20.8891 13.4247C20.8072 13.3763 20.7095 13.349 20.6085 13.3463H19.05C18.9075 13.3463 18.783 13.4687 18.783 13.5837C18.783 13.6657 20.4075 17.4456 20.55 17.8054C20.325 18.0636 18.8415 19.7498 18.8415 19.9542C18.8415 20.0766 18.966 20.172 19.1085 20.172H20.709C20.7838 20.168 20.8566 20.15 20.9216 20.1195C20.9866 20.0889 21.0422 20.0466 21.084 19.9958V19.9934ZM34.359 12.7394C34.359 11.3113 33.009 10.8353 31.467 10.8353H28.158C28.0472 10.8346 27.9397 10.8665 27.8554 10.9251C27.7711 10.9838 27.7156 11.0653 27.699 11.1547L26.349 18.0893C26.3325 18.2251 26.457 18.361 26.616 18.361H28.3245C28.491 18.361 28.6155 18.2594 28.6575 18.1431L29.0325 16.1718C29.1165 15.6823 30.1335 15.8524 30.5325 15.8524C32.8995 15.8524 34.359 14.6973 34.359 12.7394ZM41.3745 13.3377H39.7905C39.474 13.3377 39.4575 13.7122 39.432 13.8957C38.973 13.3182 38.265 13.2154 37.4565 13.2154C35.415 13.2154 33.8565 14.6764 33.8565 16.288C33.8565 17.6133 34.8735 18.4772 36.498 18.4772C37.2735 18.4772 38.2065 18.1444 38.706 17.6684C38.6805 17.7699 38.622 17.9877 38.622 18.0905C38.622 18.2472 38.706 18.3622 38.889 18.3622H40.3305C40.5555 18.3622 40.7475 18.1652 40.7895 17.9743L41.64 13.6033C41.6655 13.4736 41.541 13.3377 41.3745 13.3377ZM45.333 11.0739C45.333 10.9381 45.2085 10.8365 45.066 10.8365H43.524C43.3995 10.8365 43.2735 10.9185 43.257 11.0201L41.907 18.0905L41.883 18.1248C41.883 18.2472 42.0075 18.3622 42.174 18.3622H43.5495C43.758 18.3622 43.9665 18.1652 43.983 17.9743L45.333 11.0947V11.0739ZM37.833 14.5957C36.816 14.5957 36.024 15.2553 36.024 16.091C36.024 16.7506 36.6075 17.1104 37.374 17.1104C38.3745 17.1104 39.183 16.4851 39.183 15.6493C39.192 14.9836 38.6085 14.5957 37.833 14.5957Z" fill="white"/>
</g>
<defs>
<clipPath id="clip0_343_1499">
<rect width="48" height="31" fill="white"/>
</clipPath>
</defs>
</svg>
