<svg width="24" height="24" viewBox="0 0 24 24" fill="none" xmlns="http://www.w3.org/2000/svg">
<g id="iconamoon:delivery-fast-fill">
<path id="Vector" fill-rule="evenodd" clip-rule="evenodd" d="M1 3C1 2.73478 1.10536 2.48043 1.29289 2.29289C1.48043 2.10536 1.73478 2 2 2H13C13.2652 2 13.5196 2.10536 13.7071 2.29289C13.8946 2.48043 14 2.73478 14 3V8H18C18.6566 8 19.3068 8.12933 19.9134 8.3806C20.52 8.63188 21.0712 9.00017 21.5355 9.46447C21.9998 9.92876 22.3681 10.48 22.6194 11.0866C22.8707 11.6932 23 12.3434 23 13V17C23.0001 17.6437 22.7932 18.2705 22.4098 18.7876C22.0265 19.3048 21.487 19.6849 20.871 19.872C20.6876 20.477 20.3178 21.0086 19.8143 21.3909C19.3108 21.7732 18.6994 21.9867 18.0674 22.0009C17.4353 22.0151 16.815 21.8293 16.2948 21.4699C15.7747 21.1106 15.3814 20.5962 15.171 20H8.83C8.61962 20.5962 8.22629 21.1106 7.70616 21.4699C7.18602 21.8293 6.56566 22.0151 5.93363 22.0009C5.3016 21.9867 4.69021 21.7732 4.18673 21.3909C3.68324 21.0086 3.3134 20.477 3.13 19.872C2.51384 19.6851 1.97412 19.305 1.59057 18.7879C1.20701 18.2707 0.999962 17.6439 1 17V13H7C7.26522 13 7.51957 12.8946 7.70711 12.7071C7.89464 12.5196 8 12.2652 8 12C8 11.7348 7.89464 11.4804 7.70711 11.2929C7.51957 11.1054 7.26522 11 7 11H1V9H5C5.26522 9 5.51957 8.89464 5.70711 8.70711C5.89464 8.51957 6 8.26522 6 8C6 7.73478 5.89464 7.48043 5.70711 7.29289C5.51957 7.10536 5.26522 7 5 7H1V3ZM14 18H15.171C15.3687 17.4404 15.7279 16.9521 16.2032 16.5967C16.6785 16.2414 17.2485 16.0349 17.8411 16.0036C18.4337 15.9722 19.0223 16.1173 19.5325 16.4205C20.0426 16.7237 20.4513 17.1714 20.707 17.707C20.8 17.6143 20.8738 17.5041 20.924 17.3827C20.9743 17.2614 21.0001 17.1313 21 17V13C21 12.2044 20.6839 11.4413 20.1213 10.8787C19.5587 10.3161 18.7956 10 18 10H14V18ZM7 19C7 18.7348 6.89464 18.4804 6.70711 18.2929C6.51957 18.1054 6.26522 18 6 18C5.73478 18 5.48043 18.1054 5.29289 18.2929C5.10536 18.4804 5 18.7348 5 19C5 19.2652 5.10536 19.5196 5.29289 19.7071C5.48043 19.8946 5.73478 20 6 20C6.26522 20 6.51957 19.8946 6.70711 19.7071C6.89464 19.5196 7 19.2652 7 19ZM17.293 18.293C17.1999 18.3856 17.126 18.4958 17.0757 18.6172C17.0254 18.7385 16.9997 18.8686 17 19C17 19.2314 17.0801 19.4556 17.2269 19.6344C17.3736 19.8133 17.5778 19.9358 17.8047 19.981C18.0316 20.0261 18.2672 19.9912 18.4712 19.8822C18.6753 19.7732 18.8352 19.5968 18.9238 19.3831C19.0124 19.1693 19.0241 18.9315 18.957 18.7101C18.8899 18.4887 18.7481 18.2974 18.5557 18.1688C18.3634 18.0403 18.1324 17.9824 17.9021 18.005C17.6719 18.0277 17.4566 18.1294 17.293 18.293Z" fill="#F27E00"/>
</g>
</svg>
