<svg width="24" height="24" viewBox="0 0 24 24" fill="none" xmlns="http://www.w3.org/2000/svg">
<g id="solar:delivery-outline">
<g id="Group">
<path id="Vector" fill-rule="evenodd" clip-rule="evenodd" d="M18.0896 2.54902C17.5376 2.23902 16.9496 2.20902 16.3286 2.28602C15.7386 2.36002 15.0196 2.54602 14.1566 2.77102L12.1376 3.29502C11.2746 3.52002 10.5566 3.70602 10.0076 3.92902C9.42859 4.16302 8.92858 4.47702 8.60458 5.02202C8.27858 5.57002 8.24659 6.15602 8.32759 6.76802C8.40459 7.34502 8.59759 8.04502 8.82759 8.87902L9.37059 10.843C9.60059 11.678 9.79458 12.377 10.0256 12.913C10.2706 13.483 10.5976 13.968 11.1536 14.28C11.7056 14.589 12.2936 14.62 12.9156 14.542C13.5056 14.469 14.2246 14.282 15.0876 14.057L17.1066 13.533C17.9696 13.309 18.6876 13.122 19.2366 12.899C19.8156 12.665 20.3156 12.351 20.6396 11.806C20.9656 11.258 20.9976 10.672 20.9166 10.061C20.8396 9.48402 20.6466 8.78302 20.4166 7.94902L19.8736 5.98502C19.6436 5.15102 19.4496 4.45102 19.2186 3.91502C18.9736 3.34502 18.6446 2.86002 18.0896 2.54902ZM14.4846 4.23502C15.4096 3.99502 16.0326 3.83502 16.5146 3.77502C16.9756 3.71702 17.1966 3.76802 17.3576 3.85802C17.5146 3.94602 17.6656 4.09902 17.8406 4.50802C18.0256 4.93802 18.1936 5.53702 18.4416 6.43502L18.9556 8.29802C19.2046 9.19602 19.3686 9.79602 19.4296 10.258C19.4876 10.697 19.4356 10.896 19.3496 11.039C19.2626 11.186 19.1046 11.335 18.6746 11.509C18.2266 11.69 17.6046 11.854 16.6796 12.094L14.7596 12.593C13.8346 12.833 13.2116 12.993 12.7296 13.053C12.2676 13.112 12.0476 13.061 11.8866 12.971C11.7296 12.883 11.5786 12.729 11.4036 12.321C11.2186 11.891 11.0506 11.291 10.8026 10.393L10.2886 8.53102C10.0396 7.63102 9.87558 7.03202 9.81458 6.57102C9.75658 6.13102 9.80859 5.93302 9.89459 5.78902C9.98159 5.64202 10.1396 5.49302 10.5696 5.31902C11.0176 5.13802 11.6396 4.97502 12.5646 4.73402L14.4846 4.23502Z" fill="#333333"/>
<path id="Vector_2" fill-rule="evenodd" clip-rule="evenodd" d="M3.20007 4.725C3.01062 4.67856 2.81052 4.70775 2.64223 4.80639C2.47395 4.90503 2.35071 5.06535 2.29867 5.25334C2.24663 5.44134 2.26988 5.64221 2.36349 5.81335C2.4571 5.98448 2.6137 6.11242 2.80007 6.17L4.50307 6.643C4.92907 6.761 5.24607 7.083 5.35407 7.474L7.30607 14.537C7.23054 14.552 7.1555 14.5693 7.08107 14.589C5.10407 15.102 3.89607 17.091 4.43807 19.056C4.97807 21.011 7.03207 22.138 9.00107 21.626C10.7251 21.179 11.8641 19.61 11.7681 17.914L20.1881 15.726C20.2834 15.7012 20.3729 15.658 20.4515 15.5986C20.5302 15.5392 20.5963 15.465 20.6462 15.3801C20.6961 15.2952 20.7288 15.2012 20.7424 15.1037C20.7561 15.0061 20.7503 14.9068 20.7256 14.8115C20.7008 14.7162 20.6575 14.6266 20.5982 14.548C20.5388 14.4694 20.4646 14.4033 20.3796 14.3534C20.2947 14.3034 20.2008 14.2707 20.1032 14.2571C20.0057 14.2435 19.9064 14.2492 19.8111 14.274L11.3731 16.467C11.1206 15.9846 10.7654 15.5635 10.3323 15.2335C9.89932 14.9035 9.39912 14.6725 8.86707 14.557L6.80007 7.074C6.67319 6.62385 6.43185 6.21425 6.09957 5.88513C5.76729 5.556 5.35541 5.31858 4.90407 5.196L3.20107 4.724L3.20007 4.725ZM7.45907 16.04C8.67107 15.726 9.88707 16.429 10.1991 17.559C10.5091 18.679 9.82907 19.862 8.62507 20.175C7.41307 20.49 6.19707 19.786 5.88507 18.656C5.57507 17.536 6.25507 16.353 7.45907 16.04Z" fill="#333333"/>
</g>
</g>
</svg>
