<svg width="24" height="24" viewBox="0 0 24 24" fill="none" xmlns="http://www.w3.org/2000/svg">
<g id="iconamoon:badge-fill">
<path id="Vector" fill-rule="evenodd" clip-rule="evenodd" d="M3 4C3 3.73478 3.10536 3.48043 3.29289 3.29289C3.48043 3.10536 3.73478 3 4 3H11.172C11.9672 3.00044 12.7298 3.3166 13.292 3.879L20.292 10.879C20.8544 11.4416 21.1704 12.2045 21.1704 13C21.1704 13.7955 20.8544 14.5584 20.292 15.121L15.122 20.293C14.8434 20.5716 14.5127 20.7927 14.1487 20.9434C13.7847 21.0942 13.3945 21.1719 13.0005 21.1719C12.6065 21.1719 12.2163 21.0942 11.8523 20.9434C11.4883 20.7927 11.1576 20.5716 10.879 20.293L3.879 13.293C3.31635 12.7305 3.00017 11.9676 3 11.172V4ZM9 7.5C8.60218 7.5 8.22064 7.65804 7.93934 7.93934C7.65804 8.22064 7.5 8.60218 7.5 9V9.01C7.5 9.40782 7.65804 9.78936 7.93934 10.0707C8.22064 10.352 8.60218 10.51 9 10.51H9.01C9.40782 10.51 9.78936 10.352 10.0707 10.0707C10.352 9.78936 10.51 9.40782 10.51 9.01V9C10.51 8.60218 10.352 8.22064 10.0707 7.93934C9.78936 7.65804 9.40782 7.5 9.01 7.5H9Z" fill="#C20000"/>
</g>
</svg>
