<svg width="190" height="36" viewBox="0 0 190 36" fill="none" xmlns="http://www.w3.org/2000/svg">
<g id="Group 93">
<path id="Rectangle 138" d="M145.76 8.69799C145.76 3.89422 149.513 0 154.142 0H179.289C183.919 0 187.672 3.89422 187.672 8.69799V27.302C187.672 32.1058 183.919 36 179.289 36H154.142C149.513 36 145.76 32.1058 145.76 27.302V8.69799Z" fill="#F2672E"/>
<path id="Rectangle 139" d="M147.157 9.90599C147.157 5.10223 150.91 1.20801 155.539 1.20801H177.892C182.521 1.20801 186.274 5.10223 186.274 9.90599V26.0939C186.274 30.8977 182.521 34.7919 177.892 34.7919H155.539C150.91 34.7919 147.157 30.8977 147.157 26.0939V9.90599Z" fill="#F2672E"/>
<path id="Rectangle 139 (Stroke)" fill-rule="evenodd" clip-rule="evenodd" d="M177.892 2.17445H155.539C151.424 2.17445 148.088 5.63598 148.088 9.90599V26.0939C148.088 30.3639 151.424 33.8255 155.539 33.8255H177.892C182.007 33.8255 185.343 30.3639 185.343 26.0939V9.90599C185.343 5.63598 182.007 2.17445 177.892 2.17445ZM155.539 1.20801C150.91 1.20801 147.157 5.10223 147.157 9.90599V26.0939C147.157 30.8977 150.91 34.7919 155.539 34.7919H177.892C182.521 34.7919 186.274 30.8977 186.274 26.0939V9.90599C186.274 5.10223 182.521 1.20801 177.892 1.20801H155.539Z" fill="#F9F9F9"/>
<path id="Rectangle 140" d="M170.208 15.7046C170.208 13.5696 171.876 11.8389 173.934 11.8389H190V24.8858H173.934C171.876 24.8858 170.208 23.1551 170.208 21.0201V15.7046Z" fill="#F2672E"/>
<path id="Rectangle 140 (Stroke)" fill-rule="evenodd" clip-rule="evenodd" d="M189.069 12.8053H173.934C172.391 12.8053 171.14 14.1034 171.14 15.7046V21.0201C171.14 22.6213 172.391 23.9194 173.934 23.9194H189.069V12.8053ZM173.934 11.8389C171.876 11.8389 170.208 13.5696 170.208 15.7046V21.0201C170.208 23.1551 171.876 24.8858 173.934 24.8858H190V11.8389H173.934Z" fill="white"/>
<path id="Ellipse 31" d="M180.686 18.483C180.686 20.151 179.383 21.5032 177.776 21.5032C176.168 21.5032 174.865 20.151 174.865 18.483C174.865 16.8151 176.168 15.4629 177.776 15.4629C179.383 15.4629 180.686 16.8151 180.686 18.483Z" fill="white"/>
<g id="LOPATNIK">
<path d="M0 22.7596V0.193424H2.27998V20.6964H14.3577V22.7596H0Z" fill="#F2672E"/>
<path d="M24.6853 22.953C23.0626 22.953 21.5529 22.6736 20.1561 22.1148C18.7799 21.5346 17.5783 20.7286 16.5513 19.697C15.5448 18.644 14.754 17.4297 14.1789 16.0542C13.6243 14.6573 13.347 13.1314 13.347 11.4765C13.347 9.82166 13.6243 8.3065 14.1789 6.93104C14.754 5.53408 15.5448 4.31981 16.5513 3.28821C17.5783 2.23513 18.7799 1.42919 20.1561 0.87041C21.5323 0.290137 23.042 0 24.6853 0C26.308 0 27.8074 0.290137 29.1836 0.87041C30.5598 1.42919 31.7512 2.22438 32.7576 3.25598C33.7846 4.28757 34.5755 5.50185 35.13 6.8988C35.7052 8.29575 35.9927 9.82166 35.9927 11.4765C35.9927 13.1314 35.7052 14.6573 35.13 16.0542C34.5755 17.4512 33.7846 18.6654 32.7576 19.697C31.7512 20.7286 30.5598 21.5346 29.1836 22.1148C27.8074 22.6736 26.308 22.953 24.6853 22.953ZM24.6853 20.8254C25.9793 20.8254 27.1706 20.5997 28.2593 20.1484C29.3685 19.6756 30.3236 19.0201 31.1247 18.1819C31.9463 17.3222 32.583 16.3336 33.0349 15.216C33.4868 14.077 33.7128 12.8305 33.7128 11.4765C33.7128 10.1225 33.4868 8.88677 33.0349 7.76921C32.583 6.63016 31.9463 5.64154 31.1247 4.80337C30.3236 3.94371 29.3685 3.28821 28.2593 2.83689C27.1706 2.36407 25.9793 2.12767 24.6853 2.12767C23.3912 2.12767 22.1896 2.36407 21.0804 2.83689C19.9713 3.28821 19.0059 3.94371 18.1842 4.80337C17.3832 5.64154 16.7464 6.63016 16.274 7.76921C15.8221 8.88677 15.5962 10.1225 15.5962 11.4765C15.5962 12.809 15.8221 14.0448 16.274 15.1838C16.7464 16.3229 17.3832 17.3222 18.1842 18.1819C19.0059 19.0201 19.9713 19.6756 21.0804 20.1484C22.1896 20.5997 23.3912 20.8254 24.6853 20.8254Z" fill="#F2672E"/>
<path d="M38.6383 22.7596V0.193424H46.7107C48.5388 0.193424 50.1101 0.505052 51.4247 1.12831C52.7393 1.73007 53.7458 2.61123 54.4442 3.77177C55.1631 4.91083 55.5225 6.29704 55.5225 7.9304C55.5225 9.52078 55.1631 10.8962 54.4442 12.0568C53.7458 13.1958 52.7393 14.077 51.4247 14.7002C50.1101 15.3235 48.5388 15.6351 46.7107 15.6351H39.9016L40.9183 14.5068V22.7596H38.6383ZM40.9183 14.7002L39.9016 13.5397H46.6491C48.8058 13.5397 50.4388 13.0561 51.548 12.089C52.6777 11.1004 53.2425 9.7142 53.2425 7.9304C53.2425 6.1251 52.6777 4.72815 51.548 3.73954C50.4388 2.75092 48.8058 2.25662 46.6491 2.25662H39.9016L40.9183 1.12831V14.7002Z" fill="#F2672E"/>
<path d="M53.4537 22.7596L63.313 0.193424H65.5622L75.4216 22.7596H73.0183L63.96 1.57963H64.8844L55.8261 22.7596H53.4537ZM57.3358 16.7312L58.0136 14.797H70.5535L71.2313 16.7312H57.3358Z" fill="#F2672E"/>
<path d="M79.6315 22.7596V2.25662H72.0521V0.193424H89.4909V2.25662H81.9115V22.7596H79.6315Z" fill="#F2672E"/>
<path d="M90.6685 22.7596V0.193424H92.5479L107.429 19.7938H106.443V0.193424H108.693V22.7596H106.813L91.9625 3.15926H92.9484V22.7596H90.6685Z" fill="#F2672E"/>
<path d="M113.267 22.7596V0.193424H115.547V22.7596H113.267Z" fill="#F2672E"/>
<path d="M122.072 17.1503L121.979 14.2489L135.043 0.193424H137.662L128.141 10.6383L126.847 12.089L122.072 17.1503ZM120.1 22.7596V0.193424H122.38V22.7596H120.1ZM135.597 22.7596L126.293 11.541L127.833 9.80017L138.309 22.7596H135.597Z" fill="#F2672E"/>
</g>
<g id="&#208;&#188;&#208;&#176;&#208;&#179;&#208;&#176;&#208;&#183;&#208;&#184;&#208;&#189; &#209;&#141;&#208;&#187;&#208;&#184;&#209;&#130;&#208;&#189;&#209;&#139;&#209;&#133; &#209;&#130;&#208;&#190;&#208;&#178;&#208;&#176;&#209;&#128;&#208;&#190;&#208;&#178;">
<path d="M0 33.5435V26.897H0.868414L3.739 31.999H3.37716L6.296 26.897H7.09204V33.5435H6.30806V27.9224L6.46485 27.9984L3.739 32.7333H3.35304L0.603065 27.9478L0.783984 27.9098V33.5435H0Z" fill="#333333"/>
<path d="M12.496 33.5435V32.0749L12.4598 31.8344V29.3784C12.4598 28.8129 12.307 28.3782 12.0015 28.0744C11.7039 27.7705 11.2577 27.6186 10.6627 27.6186C10.2526 27.6186 9.86259 27.6903 9.49271 27.8338C9.12283 27.9773 8.80924 28.1672 8.55193 28.4035L8.16597 27.7325C8.4876 27.4456 8.87356 27.2261 9.32385 27.0742C9.77414 26.9139 10.2486 26.8337 10.7471 26.8337C11.5673 26.8337 12.1985 27.0489 12.6407 27.4793C13.091 27.9013 13.3161 28.547 13.3161 29.4163V33.5435H12.496ZM10.3129 33.6068C9.83847 33.6068 9.42436 33.5266 9.07057 33.3663C8.72481 33.1975 8.45946 32.9696 8.27452 32.6826C8.08958 32.3872 7.99711 32.0496 7.99711 31.6698C7.99711 31.3238 8.0735 31.0115 8.22628 30.733C8.38709 30.446 8.6444 30.2181 8.9982 30.0493C9.36004 29.8721 9.84249 29.7835 10.4456 29.7835H12.6286V30.4545H10.4697C9.85857 30.4545 9.43241 30.5684 9.19118 30.7963C8.95799 31.0242 8.8414 31.3069 8.8414 31.6445C8.8414 32.0243 8.98212 32.3282 9.26355 32.556C9.54498 32.7839 9.93898 32.8979 10.4456 32.8979C10.928 32.8979 11.3421 32.7839 11.6879 32.556C12.0417 32.3197 12.299 31.9821 12.4598 31.5432L12.6528 32.1636C12.492 32.6025 12.2105 32.9527 11.8085 33.2144C11.4145 33.476 10.9159 33.6068 10.3129 33.6068Z" fill="#333333"/>
<path d="M14.6309 33.5435V26.897H19.1177V27.6819H15.2702L15.4873 27.454V33.5435H14.6309Z" fill="#333333"/>
<path d="M23.3224 33.5435V32.0749L23.2862 31.8344V29.3784C23.2862 28.8129 23.1334 28.3782 22.8279 28.0744C22.5304 27.7705 22.0841 27.6186 21.4891 27.6186C21.079 27.6186 20.689 27.6903 20.3191 27.8338C19.9493 27.9773 19.6357 28.1672 19.3784 28.4035L18.9924 27.7325C19.314 27.4456 19.7 27.2261 20.1503 27.0742C20.6006 26.9139 21.075 26.8337 21.5735 26.8337C22.3937 26.8337 23.0249 27.0489 23.4671 27.4793C23.9174 27.9013 24.1426 28.547 24.1426 29.4163V33.5435H23.3224ZM21.1393 33.6068C20.6649 33.6068 20.2508 33.5266 19.897 33.3663C19.5512 33.1975 19.2859 32.9696 19.1009 32.6826C18.916 32.3872 18.8235 32.0496 18.8235 31.6698C18.8235 31.3238 18.8999 31.0115 19.0527 30.733C19.2135 30.446 19.4708 30.2181 19.8246 30.0493C20.1865 29.8721 20.6689 29.7835 21.272 29.7835H23.4551V30.4545H21.2961C20.685 30.4545 20.2588 30.5684 20.0176 30.7963C19.7844 31.0242 19.6678 31.3069 19.6678 31.6445C19.6678 32.0243 19.8085 32.3282 20.09 32.556C20.3714 32.7839 20.7654 32.8979 21.272 32.8979C21.7544 32.8979 22.1685 32.7839 22.5143 32.556C22.8681 32.3197 23.1254 31.9821 23.2862 31.5432L23.4792 32.1636C23.3184 32.6025 23.037 32.9527 22.6349 33.2144C22.2409 33.476 21.7424 33.6068 21.1393 33.6068Z" fill="#333333"/>
<path d="M27.0284 33.6195C26.5701 33.6195 26.1158 33.552 25.6655 33.4169C25.2152 33.2819 24.8172 33.0751 24.4714 32.7966L24.7488 32.1256C25.0544 32.3619 25.4082 32.5434 25.8102 32.67C26.2123 32.7881 26.6103 32.8472 27.0043 32.8472C27.3983 32.8388 27.74 32.7797 28.0295 32.67C28.319 32.5603 28.5441 32.4083 28.7049 32.2142C28.8658 32.0201 28.9462 31.8006 28.9462 31.5559C28.9462 31.2014 28.7934 30.9271 28.4878 30.733C28.1823 30.5304 27.7642 30.4291 27.2335 30.4291H26.1479V29.7708H27.1732C27.4868 29.7708 27.7642 29.7286 28.0054 29.6442C28.2466 29.5598 28.4316 29.4374 28.5602 29.2771C28.6969 29.1167 28.7652 28.9268 28.7652 28.7074C28.7652 28.4711 28.6848 28.2685 28.524 28.0997C28.3712 27.9309 28.1582 27.8043 27.8848 27.7199C27.6114 27.6355 27.3018 27.5933 26.9561 27.5933C26.6425 27.6017 26.3168 27.6524 25.9791 27.7452C25.6414 27.8296 25.3077 27.9604 24.978 28.1377L24.7368 27.4414C25.1067 27.2388 25.4725 27.0869 25.8344 26.9856C26.2042 26.8759 26.5741 26.821 26.944 26.821C27.4506 26.8041 27.9049 26.8674 28.3069 27.0109C28.717 27.1544 29.0427 27.3612 29.2839 27.6313C29.5251 27.8929 29.6457 28.2094 29.6457 28.5808C29.6457 28.9099 29.5492 29.1969 29.3563 29.4417C29.1633 29.6864 28.906 29.8763 28.5843 30.0114C28.2627 30.1464 27.8968 30.2139 27.4868 30.2139L27.5229 29.9734C28.2466 29.9734 28.8095 30.1211 29.2115 30.4165C29.6216 30.7119 29.8266 31.1128 29.8266 31.6192C29.8266 32.0159 29.702 32.3661 29.4527 32.67C29.2035 32.9654 28.8658 33.1975 28.4396 33.3663C28.0215 33.5351 27.5511 33.6195 27.0284 33.6195Z" fill="#333333"/>
<path d="M30.8058 33.5435V26.897H31.6621V32.1762L35.8956 26.897H36.6555V33.5435H35.7992V28.2516L31.5777 33.5435H30.8058Z" fill="#333333"/>
<path d="M38.1448 33.5435V26.897H39.0011V29.8341H42.9934V26.897H43.8498V33.5435H42.9934V30.6064H39.0011V33.5435H38.1448Z" fill="#333333"/>
<path d="M48.3911 30.5051V29.8215H52.0698V30.5051H48.3911ZM49.2354 26.8337C49.8787 26.8337 50.4536 26.9814 50.9602 27.2768C51.4668 27.5637 51.8648 27.9646 52.1543 28.4795C52.4518 28.9859 52.6005 29.564 52.6005 30.2139C52.6005 30.8638 52.4518 31.4462 52.1543 31.961C51.8648 32.4759 51.4668 32.881 50.9602 33.1764C50.4536 33.4718 49.8787 33.6195 49.2354 33.6195C48.7128 33.6195 48.2263 33.5351 47.776 33.3663C47.3338 33.189 46.9599 32.9358 46.6543 32.6067L47.1609 32.0749C47.4343 32.345 47.7439 32.5476 48.0896 32.6826C48.4354 32.8092 48.8052 32.8725 49.1992 32.8725C49.6978 32.8725 50.14 32.7586 50.526 32.5307C50.92 32.2944 51.2296 31.9779 51.4547 31.5812C51.6799 31.1761 51.7924 30.7203 51.7924 30.2139C51.7924 29.7075 51.6799 29.256 51.4547 28.8593C51.2296 28.4542 50.92 28.1377 50.526 27.9098C50.14 27.6819 49.6978 27.568 49.1992 27.568C48.8052 27.568 48.4354 27.6355 48.0896 27.7705C47.7439 27.8971 47.4343 28.0955 47.1609 28.3656L46.6543 27.8465C46.9599 27.5089 47.3338 27.2557 47.776 27.0869C48.2263 26.9181 48.7128 26.8337 49.2354 26.8337Z" fill="#333333"/>
<path d="M52.243 33.5309L52.3033 32.7586C52.3596 32.767 52.4119 32.7797 52.4601 32.7966C52.5164 32.805 52.5647 32.8092 52.6049 32.8092C52.8622 32.8092 53.0672 32.708 53.22 32.5054C53.3808 32.3028 53.5014 32.0327 53.5818 31.6951C53.6622 31.3575 53.7185 30.9777 53.7507 30.5557C53.7829 30.1253 53.811 29.6949 53.8351 29.2644L53.9437 26.897H58.5873V33.5435H57.7309V27.416L57.948 27.6819H54.4985L54.7035 27.4034L54.607 29.3277C54.5829 29.9016 54.5387 30.4502 54.4744 30.9735C54.4181 31.4968 54.3256 31.9568 54.197 32.3535C54.0764 32.7502 53.9075 33.0624 53.6904 33.2903C53.4733 33.5098 53.1959 33.6195 52.8582 33.6195C52.7617 33.6195 52.6612 33.611 52.5566 33.5942C52.4601 33.5773 52.3556 33.5562 52.243 33.5309Z" fill="#333333"/>
<path d="M60.0568 33.5435V26.897H60.9131V32.1762L65.1466 26.897H65.9065V33.5435H65.0502V28.2516L60.8287 33.5435H60.0568Z" fill="#333333"/>
<path d="M68.6019 33.5435V27.4414L68.819 27.6819H66.2017V26.897H71.8585V27.6819H69.2412L69.4583 27.4414V33.5435H68.6019Z" fill="#333333"/>
<path d="M72.1317 33.5435V26.897H72.9881V29.8341H76.9804V26.897H77.8367V33.5435H76.9804V30.6064H72.9881V33.5435H72.1317Z" fill="#333333"/>
<path d="M85.4812 33.5435V26.897H86.3376V33.5435H85.4812ZM81.9714 29.2391C82.7674 29.2475 83.3745 29.4332 83.7926 29.7961C84.2108 30.1591 84.4198 30.6823 84.4198 31.366C84.4198 32.0749 84.1947 32.6193 83.7444 32.9991C83.2941 33.3789 82.6508 33.5646 81.8146 33.5562L79.3058 33.5435V26.897H80.1622V29.2138L81.9714 29.2391ZM81.7543 32.8725C82.3493 32.881 82.7956 32.7586 83.0931 32.5054C83.3987 32.2437 83.5514 31.8639 83.5514 31.366C83.5514 30.868 83.4027 30.5051 83.1051 30.2772C82.8076 30.0409 82.3574 29.9185 81.7543 29.9101L80.1622 29.8848V32.8472L81.7543 32.8725Z" fill="#333333"/>
<path d="M86.7737 33.5435L89.4513 29.8974L89.4392 30.3405L86.8943 26.897H87.8592L89.9458 29.7455L89.584 29.7328L91.6706 26.897H92.6113L90.0423 30.3785L90.0543 29.8974L92.7561 33.5435H91.7791L89.5719 30.5051L89.9096 30.5557L87.7386 33.5435H86.7737Z" fill="#333333"/>
<path d="M96.5926 33.5435V27.4414L96.8097 27.6819H94.1924V26.897H99.8492V27.6819H97.2318L97.449 27.4414V33.5435H96.5926Z" fill="#333333"/>
<path d="M102.433 33.6068C101.822 33.6068 101.271 33.4633 100.781 33.1764C100.298 32.881 99.9164 32.4801 99.635 31.9737C99.3535 31.4588 99.2128 30.8722 99.2128 30.2139C99.2128 29.5472 99.3535 28.9606 99.635 28.4542C99.9164 27.9478 100.298 27.5511 100.781 27.2641C101.263 26.9772 101.814 26.8337 102.433 26.8337C103.06 26.8337 103.615 26.9772 104.098 27.2641C104.588 27.5511 104.97 27.9478 105.243 28.4542C105.525 28.9606 105.666 29.5472 105.666 30.2139C105.666 30.8722 105.525 31.4588 105.243 31.9737C104.97 32.4801 104.588 32.881 104.098 33.1764C103.607 33.4633 103.052 33.6068 102.433 33.6068ZM102.433 32.8092C102.892 32.8092 103.298 32.7037 103.651 32.4927C104.005 32.2733 104.283 31.9694 104.484 31.5812C104.693 31.1845 104.797 30.7288 104.797 30.2139C104.797 29.6906 104.693 29.2349 104.484 28.8466C104.283 28.4584 104.005 28.1588 103.651 27.9478C103.298 27.7283 102.896 27.6186 102.445 27.6186C101.995 27.6186 101.593 27.7283 101.239 27.9478C100.885 28.1588 100.604 28.4584 100.395 28.8466C100.186 29.2349 100.081 29.6906 100.081 30.2139C100.081 30.7288 100.186 31.1845 100.395 31.5812C100.604 31.9694 100.885 32.2733 101.239 32.4927C101.593 32.7037 101.991 32.8092 102.433 32.8092Z" fill="#333333"/>
<path d="M106.531 33.5435V26.897H109.329C110.045 26.897 110.608 27.0405 111.018 27.3274C111.436 27.6144 111.645 28.0364 111.645 28.5934C111.645 29.1336 111.448 29.5514 111.054 29.8468C110.66 30.1337 110.141 30.2772 109.498 30.2772L109.667 30.0114C110.423 30.0114 110.978 30.1591 111.331 30.4545C111.685 30.7499 111.862 31.1761 111.862 31.7331C111.862 32.3071 111.661 32.7544 111.259 33.0751C110.865 33.3874 110.25 33.5435 109.414 33.5435H106.531ZM107.363 32.8346H109.377C109.916 32.8346 110.322 32.7459 110.596 32.5687C110.877 32.383 111.018 32.0876 111.018 31.6825C111.018 31.2774 110.893 30.982 110.644 30.7963C110.395 30.6106 110.001 30.5178 109.462 30.5178H107.363V32.8346ZM107.363 29.8468H109.269C109.759 29.8468 110.133 29.7497 110.391 29.5556C110.656 29.3615 110.789 29.0787 110.789 28.7074C110.789 28.336 110.656 28.0575 110.391 27.8718C110.133 27.6861 109.759 27.5933 109.269 27.5933H107.363V29.8468Z" fill="#333333"/>
<path d="M116.836 33.5435V32.0749L116.8 31.8344V29.3784C116.8 28.8129 116.647 28.3782 116.342 28.0744C116.044 27.7705 115.598 27.6186 115.003 27.6186C114.593 27.6186 114.203 27.6903 113.833 27.8338C113.463 27.9773 113.149 28.1672 112.892 28.4035L112.506 27.7325C112.828 27.4456 113.214 27.2261 113.664 27.0742C114.114 26.9139 114.589 26.8337 115.087 26.8337C115.907 26.8337 116.539 27.0489 116.981 27.4793C117.431 27.9013 117.656 28.547 117.656 29.4163V33.5435H116.836ZM114.653 33.6068C114.179 33.6068 113.764 33.5266 113.411 33.3663C113.065 33.1975 112.8 32.9696 112.615 32.6826C112.43 32.3872 112.337 32.0496 112.337 31.6698C112.337 31.3238 112.414 31.0115 112.566 30.733C112.727 30.446 112.985 30.2181 113.338 30.0493C113.7 29.8721 114.183 29.7835 114.786 29.7835H116.969V30.4545H114.81C114.199 30.4545 113.773 30.5684 113.531 30.7963C113.298 31.0242 113.182 31.3069 113.182 31.6445C113.182 32.0243 113.322 32.3282 113.604 32.556C113.885 32.7839 114.279 32.8979 114.786 32.8979C115.268 32.8979 115.682 32.7839 116.028 32.556C116.382 32.3197 116.639 31.9821 116.8 31.5432L116.993 32.1636C116.832 32.6025 116.551 32.9527 116.149 33.2144C115.755 33.476 115.256 33.6068 114.653 33.6068Z" fill="#333333"/>
<path d="M122.24 33.6068C121.693 33.6068 121.198 33.476 120.756 33.2144C120.314 32.9443 119.96 32.5603 119.695 32.0623C119.437 31.5559 119.309 30.9398 119.309 30.2139C119.309 29.4881 119.437 28.8762 119.695 28.3782C119.952 27.8718 120.302 27.4878 120.744 27.2261C121.186 26.9645 121.685 26.8337 122.24 26.8337C122.843 26.8337 123.381 26.9772 123.856 27.2641C124.338 27.5426 124.716 27.9393 124.99 28.4542C125.263 28.9606 125.4 29.5472 125.4 30.2139C125.4 30.8891 125.263 31.4799 124.99 31.9863C124.716 32.4927 124.338 32.8894 123.856 33.1764C123.381 33.4633 122.843 33.6068 122.24 33.6068ZM118.971 35.9996V26.897H119.791V28.8973L119.707 30.2266L119.827 31.5685V35.9996H118.971ZM122.179 32.8092C122.63 32.8092 123.032 32.7037 123.385 32.4927C123.739 32.2733 124.021 31.9694 124.23 31.5812C124.439 31.1845 124.543 30.7288 124.543 30.2139C124.543 29.6991 124.439 29.2475 124.23 28.8593C124.021 28.4711 123.739 28.1672 123.385 27.9478C123.032 27.7283 122.63 27.6186 122.179 27.6186C121.729 27.6186 121.323 27.7283 120.961 27.9478C120.607 28.1672 120.326 28.4711 120.117 28.8593C119.916 29.2475 119.815 29.6991 119.815 30.2139C119.815 30.7288 119.916 31.1845 120.117 31.5812C120.326 31.9694 120.607 32.2733 120.961 32.4927C121.323 32.7037 121.729 32.8092 122.179 32.8092Z" fill="#333333"/>
<path d="M128.88 33.6068C128.269 33.6068 127.718 33.4633 127.228 33.1764C126.745 32.881 126.363 32.4801 126.082 31.9737C125.8 31.4588 125.66 30.8722 125.66 30.2139C125.66 29.5472 125.8 28.9606 126.082 28.4542C126.363 27.9478 126.745 27.5511 127.228 27.2641C127.71 26.9772 128.261 26.8337 128.88 26.8337C129.507 26.8337 130.062 26.9772 130.544 27.2641C131.035 27.5511 131.417 27.9478 131.69 28.4542C131.972 28.9606 132.112 29.5472 132.112 30.2139C132.112 30.8722 131.972 31.4588 131.69 31.9737C131.417 32.4801 131.035 32.881 130.544 33.1764C130.054 33.4633 129.499 33.6068 128.88 33.6068ZM128.88 32.8092C129.338 32.8092 129.744 32.7037 130.098 32.4927C130.452 32.2733 130.729 31.9694 130.93 31.5812C131.139 31.1845 131.244 30.7288 131.244 30.2139C131.244 29.6906 131.139 29.2349 130.93 28.8466C130.729 28.4584 130.452 28.1588 130.098 27.9478C129.744 27.7283 129.342 27.6186 128.892 27.6186C128.442 27.6186 128.04 27.7283 127.686 27.9478C127.332 28.1588 127.051 28.4584 126.842 28.8466C126.633 29.2349 126.528 29.6906 126.528 30.2139C126.528 30.7288 126.633 31.1845 126.842 31.5812C127.051 31.9694 127.332 32.2733 127.686 32.4927C128.04 32.7037 128.438 32.8092 128.88 32.8092Z" fill="#333333"/>
<path d="M132.978 33.5435V26.897H135.776C136.492 26.897 137.054 27.0405 137.464 27.3274C137.883 27.6144 138.092 28.0364 138.092 28.5934C138.092 29.1336 137.895 29.5514 137.501 29.8468C137.107 30.1337 136.588 30.2772 135.945 30.2772L136.114 30.0114C136.869 30.0114 137.424 30.1591 137.778 30.4545C138.132 30.7499 138.309 31.1761 138.309 31.7331C138.309 32.3071 138.108 32.7544 137.706 33.0751C137.312 33.3874 136.697 33.5435 135.86 33.5435H132.978ZM133.81 32.8346H135.824C136.363 32.8346 136.769 32.7459 137.042 32.5687C137.324 32.383 137.464 32.0876 137.464 31.6825C137.464 31.2774 137.34 30.982 137.091 30.7963C136.841 30.6106 136.447 30.5178 135.909 30.5178H133.81V32.8346ZM133.81 29.8468H135.716C136.206 29.8468 136.58 29.7497 136.837 29.5556C137.103 29.3615 137.235 29.0787 137.235 28.7074C137.235 28.336 137.103 28.0575 136.837 27.8718C136.58 27.6861 136.206 27.5933 135.716 27.5933H133.81V29.8468Z" fill="#333333"/>
</g>
</g>
</svg>
