<svg width="32" height="32" viewBox="0 0 32 32" fill="none" xmlns="http://www.w3.org/2000/svg">
<g id="mingcute:close-line" clip-path="url(#clip0_619_3080)">
<g id="Group">
<path id="Vector" fill-rule="evenodd" clip-rule="evenodd" d="M16 17.8854L23.5426 25.428C23.7941 25.6709 24.1309 25.8053 24.4805 25.8023C24.8301 25.7992 25.1645 25.659 25.4117 25.4118C25.6589 25.1646 25.7992 24.8302 25.8022 24.4806C25.8052 24.131 25.6708 23.7942 25.428 23.5427L17.8853 16L25.428 8.45737C25.6708 8.2059 25.8052 7.8691 25.8022 7.5195C25.7992 7.16991 25.6589 6.83549 25.4117 6.58828C25.1645 6.34107 24.8301 6.20084 24.4805 6.1978C24.1309 6.19477 23.7941 6.32916 23.5426 6.57204L16 14.1147L8.4573 6.57204C8.2047 6.33516 7.86985 6.20586 7.52361 6.21148C7.17736 6.2171 6.84689 6.35721 6.60211 6.60216C6.35734 6.84711 6.21746 7.17768 6.21208 7.52393C6.20671 7.87018 6.33625 8.20494 6.5733 8.45737L14.1146 16L6.57197 23.5427C6.44462 23.6657 6.34304 23.8128 6.27317 23.9755C6.20329 24.1382 6.16651 24.3131 6.16497 24.4902C6.16343 24.6672 6.19716 24.8428 6.26421 25.0066C6.33125 25.1705 6.43025 25.3194 6.55544 25.4446C6.68063 25.5698 6.8295 25.6688 6.99336 25.7358C7.15722 25.8028 7.3328 25.8366 7.50984 25.835C7.68687 25.8335 7.86184 25.7967 8.02451 25.7268C8.18718 25.657 8.33431 25.5554 8.4573 25.428L16 17.8854Z" fill="#9D9D9D"/>
</g>
</g>
<defs>
<clipPath id="clip0_619_3080">
<rect width="32" height="32" fill="white"/>
</clipPath>
</defs>
</svg>
