<svg width="18" height="18" viewBox="0 0 18 18" fill="none" xmlns="http://www.w3.org/2000/svg">
<path d="M10.2537 8.99995L17.6226 1.63106C17.7683 1.46101 17.8444 1.24228 17.8357 1.01857C17.8271 0.794855 17.7343 0.582643 17.576 0.424336C17.4177 0.26603 17.2055 0.17329 16.9818 0.164649C16.7581 0.156008 16.5393 0.232102 16.3693 0.377726L9.00041 7.74661L1.63152 0.368837C1.46414 0.201456 1.23712 0.107422 1.00041 0.107422C0.763698 0.107422 0.53668 0.201456 0.369299 0.368837C0.201918 0.536218 0.107884 0.763235 0.107884 0.999948C0.107884 1.23666 0.201918 1.46368 0.369299 1.63106L7.74708 8.99995L0.369299 16.3688C0.276249 16.4485 0.200675 16.5466 0.147321 16.6569C0.0939669 16.7671 0.0639846 16.8873 0.0592561 17.0097C0.0545277 17.1321 0.0751548 17.2542 0.119843 17.3682C0.164532 17.4823 0.232317 17.5859 0.318943 17.6725C0.40557 17.7592 0.509167 17.8269 0.623234 17.8716C0.737301 17.9163 0.859374 17.9369 0.981791 17.9322C1.10421 17.9275 1.22433 17.8975 1.33461 17.8441C1.44489 17.7908 1.54295 17.7152 1.62263 17.6222L9.00041 10.2533L16.3693 17.6222C16.5393 17.7678 16.7581 17.8439 16.9818 17.8352C17.2055 17.8266 17.4177 17.7339 17.576 17.5756C17.7343 17.4173 17.8271 17.205 17.8357 16.9813C17.8444 16.7576 17.7683 16.5389 17.6226 16.3688L10.2537 8.99995Z" fill="#F2672E"/>
</svg>
