<svg width="48" height="48" viewBox="0 0 48 48" fill="none" xmlns="http://www.w3.org/2000/svg">
<g id="ph:gift">
<path id="Vector" d="M40.5 13.5H33.9225C33.9956 13.4381 34.0706 13.3781 34.1419 13.3125C34.7113 12.8066 35.1703 12.1886 35.49 11.4972C35.8097 10.8058 35.9833 10.0559 36 9.29437C36.0246 8.46126 35.8787 7.6319 35.5712 6.85722C35.2638 6.08254 34.8012 5.37887 34.2119 4.78943C33.6226 4.19998 32.9191 3.7372 32.1445 3.42948C31.3699 3.12176 30.5406 2.97561 29.7075 2.99999C28.9456 3.0164 28.1954 3.1899 27.5036 3.50963C26.8119 3.82936 26.1936 4.28843 25.6875 4.85812C24.9872 5.6698 24.4178 6.58582 24 7.57312C23.5822 6.58582 23.0128 5.6698 22.3125 4.85812C21.8064 4.28843 21.1881 3.82936 20.4964 3.50963C19.8046 3.1899 19.0544 3.0164 18.2925 2.99999C17.4594 2.97561 16.6301 3.12176 15.8555 3.42948C15.0809 3.7372 14.3774 4.19998 13.7881 4.78943C13.1988 5.37887 12.7362 6.08254 12.4288 6.85722C12.1213 7.6319 11.9754 8.46126 12 9.29437C12.0167 10.0559 12.1903 10.8058 12.51 11.4972C12.8297 12.1886 13.2887 12.8066 13.8581 13.3125C13.9294 13.3744 14.0044 13.4344 14.0775 13.5H7.5C6.70435 13.5 5.94129 13.8161 5.37868 14.3787C4.81607 14.9413 4.5 15.7043 4.5 16.5V22.5C4.5 23.2956 4.81607 24.0587 5.37868 24.6213C5.94129 25.1839 6.70435 25.5 7.5 25.5V37.5C7.5 38.2956 7.81607 39.0587 8.37868 39.6213C8.94129 40.1839 9.70435 40.5 10.5 40.5H37.5C38.2957 40.5 39.0587 40.1839 39.6213 39.6213C40.1839 39.0587 40.5 38.2956 40.5 37.5V25.5C41.2957 25.5 42.0587 25.1839 42.6213 24.6213C43.1839 24.0587 43.5 23.2956 43.5 22.5V16.5C43.5 15.7043 43.1839 14.9413 42.6213 14.3787C42.0587 13.8161 41.2957 13.5 40.5 13.5ZM27.9375 6.84562C28.175 6.58334 28.4642 6.373 28.7868 6.22781C29.1095 6.08261 29.4587 6.00568 29.8125 6.00187H29.9044C30.3191 6.00446 30.7291 6.0898 31.1104 6.25288C31.4916 6.41596 31.8365 6.6535 32.1249 6.95158C32.4132 7.24967 32.6391 7.6023 32.7893 7.98881C32.9396 8.37533 33.0112 8.78795 33 9.20249C32.9962 9.5563 32.9193 9.9055 32.7741 10.2282C32.6289 10.5508 32.4185 10.84 32.1562 11.0775C30.3769 12.6525 27.4237 13.2075 25.5938 13.4025C25.8188 11.4169 26.4375 8.53124 27.9375 6.84562ZM15.9206 6.91312C16.5018 6.33204 17.2888 6.00388 18.1106 5.99999H18.2025C18.5563 6.00381 18.9055 6.08073 19.2282 6.22593C19.5508 6.37113 19.84 6.58147 20.0775 6.84374C21.6506 8.62124 22.2056 11.5687 22.4006 13.3912C20.5781 13.2037 17.6306 12.6412 15.8531 11.0681C15.5909 10.8306 15.3805 10.5415 15.2353 10.2188C15.0901 9.89613 15.0132 9.54693 15.0094 9.19312C14.9977 8.77168 15.0719 8.35228 15.2272 7.96035C15.3826 7.56842 15.6159 7.21214 15.9131 6.91312H15.9206ZM7.5 16.5H22.5V22.5H7.5V16.5ZM10.5 25.5H22.5V37.5H10.5V25.5ZM37.5 37.5H25.5V25.5H37.5V37.5ZM40.5 22.5H25.5V16.5H40.5V22.5Z" fill="#F2672E"/>
</g>
</svg>
