<svg width="32" height="32" viewBox="0 0 32 32" fill="none" xmlns="http://www.w3.org/2000/svg">
<g id="prime:angle-left">
<path id="Vector" d="M13.6667 21.6668C13.7981 21.6674 13.9283 21.6418 14.0497 21.5914C14.171 21.541 14.2811 21.4669 14.3734 21.3735L19.0401 16.7068C19.2273 16.5193 19.3325 16.2651 19.3325 16.0001C19.3325 15.7351 19.2273 15.481 19.0401 15.2935L14.3734 10.6668C14.1855 10.5449 13.962 10.4897 13.739 10.51C13.5159 10.5302 13.3061 10.6248 13.1432 10.7785C12.9802 10.9322 12.8736 11.1361 12.8404 11.3576C12.8072 11.5792 12.8494 11.8054 12.9601 12.0001L16.9601 16.0001L12.9601 20.0001C12.7728 20.1876 12.6676 20.4418 12.6676 20.7068C12.6676 20.9718 12.7728 21.226 12.9601 21.4135C13.153 21.5877 13.407 21.6788 13.6667 21.6668Z" fill="#333333"/>
</g>
</svg>
