<svg width="32" height="32" viewBox="0 0 32 32" fill="none" xmlns="http://www.w3.org/2000/svg">
<g id="prime:angle-left">
<path id="Vector" d="M10.3333 13.6667C10.3327 13.7981 10.3583 13.9283 10.4087 14.0497C10.4591 14.171 10.5332 14.2811 10.6267 14.3734L15.2933 19.0401C15.4808 19.2273 15.735 19.3325 16 19.3325C16.265 19.3325 16.5192 19.2273 16.7067 19.0401L21.3333 14.3734C21.4552 14.1855 21.5104 13.962 21.4902 13.739C21.4699 13.5159 21.3754 13.3061 21.2217 13.1432C21.0679 12.9802 20.864 12.8736 20.6425 12.8404C20.421 12.8072 20.1947 12.8494 20 12.9601L16 16.9601L12 12.9601C11.8125 12.7728 11.5583 12.6676 11.2933 12.6676C11.0283 12.6676 10.7742 12.7728 10.5867 12.9601C10.4124 13.153 10.3214 13.407 10.3333 13.6667Z" fill="#333333"/>
</g>
</svg>
