<svg width="32" height="32" viewBox="0 0 32 32" fill="none" xmlns="http://www.w3.org/2000/svg">
<g id="prime:angle-left">
<path id="Vector" d="M18.3334 21.6668C18.202 21.6674 18.0718 21.6418 17.9505 21.5914C17.8291 21.541 17.719 21.4669 17.6267 21.3735L12.9601 16.7068C12.7728 16.5193 12.6676 16.2651 12.6676 16.0001C12.6676 15.7351 12.7728 15.481 12.9601 15.2935L17.6267 10.6668C17.8147 10.5449 18.0381 10.4897 18.2611 10.51C18.4842 10.5302 18.694 10.6248 18.857 10.7785C19.0199 10.9322 19.1265 11.1361 19.1597 11.3576C19.1929 11.5792 19.1508 11.8054 19.0401 12.0001L15.0401 16.0001L19.0401 20.0001C19.2273 20.1876 19.3325 20.4418 19.3325 20.7068C19.3325 20.9718 19.2273 21.226 19.0401 21.4135C18.8471 21.5877 18.5931 21.6788 18.3334 21.6668Z" fill="#333333"/>
</g>
</svg>
