<svg width="32" height="32" viewBox="0 0 32 32" fill="none" xmlns="http://www.w3.org/2000/svg">
<g id="prime:angle-left">
<path id="Vector" d="M21.6668 18.3333C21.6674 18.2019 21.6418 18.0717 21.5914 17.9503C21.541 17.829 21.4669 17.7189 21.3735 17.6266L16.7068 12.9599C16.5193 12.7727 16.2651 12.6675 16.0001 12.6675C15.7351 12.6675 15.481 12.7727 15.2935 12.9599L10.6668 17.6266C10.5449 17.8145 10.4897 18.038 10.51 18.261C10.5302 18.4841 10.6248 18.6939 10.7785 18.8568C10.9322 19.0198 11.1361 19.1264 11.3576 19.1596C11.5792 19.1928 11.8054 19.1506 12.0001 19.0399L16.0001 15.0399L20.0001 19.0399C20.1876 19.2272 20.4418 19.3324 20.7068 19.3324C20.9718 19.3324 21.226 19.2272 21.4135 19.0399C21.5877 18.847 21.6788 18.593 21.6668 18.3333Z" fill="#333333"/>
</g>
</svg>
