<svg width="15" height="15" viewBox="0 0 15 15" fill="none" xmlns="http://www.w3.org/2000/svg">
<g clip-path="url(#clip0_95_818)">
<path d="M7.5 0.9375C3.87598 0.9375 0.9375 3.87598 0.9375 7.5C0.9375 11.124 3.87598 14.0625 7.5 14.0625C11.124 14.0625 14.0625 11.124 14.0625 7.5C14.0625 3.87598 11.124 0.9375 7.5 0.9375ZM9.92285 9.99316L8.95605 9.98877L7.5 8.25293L6.04541 9.9873L5.07715 9.9917C5.0127 9.9917 4.95996 9.94043 4.95996 9.87451C4.95996 9.84668 4.97021 9.82031 4.98779 9.79834L6.89355 7.52783L4.98779 5.25879C4.97009 5.23732 4.96027 5.21044 4.95996 5.18262C4.95996 5.11816 5.0127 5.06543 5.07715 5.06543L6.04541 5.06982L7.5 6.80566L8.95459 5.07129L9.92139 5.06689C9.98584 5.06689 10.0386 5.11816 10.0386 5.18408C10.0386 5.21191 10.0283 5.23828 10.0107 5.26025L8.10791 7.5293L10.0122 9.7998C10.0298 9.82178 10.04 9.84814 10.04 9.87598C10.04 9.94043 9.9873 9.99316 9.92285 9.99316Z" fill="white"/>
</g>
<defs>
<clipPath id="clip0_95_818">
<rect width="15" height="15" fill="white"/>
</clipPath>
</defs>
</svg>
