<svg width="32" height="32" viewBox="0 0 32 32" fill="none" xmlns="http://www.w3.org/2000/svg">
<g id="ri:search-line">
<path id="Vector" d="M24.0434 22.1561L29.7541 27.8654L27.8674 29.7521L22.1581 24.0414C20.0337 25.7444 17.3914 26.6706 14.6688 26.6667C8.04476 26.6667 2.66876 21.2907 2.66876 14.6667C2.66876 8.04275 8.04476 2.66675 14.6688 2.66675C21.2928 2.66675 26.6688 8.04275 26.6688 14.6667C26.6726 17.3894 25.7464 20.0317 24.0434 22.1561ZM21.3688 21.1667C23.0609 19.4266 24.0059 17.094 24.0021 14.6667C24.0021 9.51075 19.8248 5.33341 14.6688 5.33341C9.51276 5.33341 5.33543 9.51075 5.33543 14.6667C5.33543 19.8227 9.51276 24.0001 14.6688 24.0001C17.096 24.0039 19.4286 23.0589 21.1688 21.3667L21.3688 21.1667Z" fill="#9D9D9D"/>
</g>
</svg>
