<svg width="89" height="24" viewBox="0 0 89 24" fill="none" xmlns="http://www.w3.org/2000/svg">
<g id="logo- 1" clip-path="url(#clip0_1315_130)">
<path id="Vector" d="M60.3652 24H66.6339L69.3426 16.425L72.1287 14.1L74.2957 20.925C74.9922 23.025 75.6887 23.925 77.2365 23.925H82.0348L77.0818 10.5L89 0H81.3383L74.1409 7.575C73.2896 8.475 72.4383 9.29999 71.587 10.35H71.5096L75.147 0H68.8783L60.3652 24Z" fill="#565656"/>
<path id="Vector_2" d="M59.8234 0.299988C61.8356 0.299988 63.693 0.299988 65.3182 0.299988L64.0025 4.2C63.6156 5.4 62.5321 5.99999 60.2877 5.99999C56.3408 5.99999 50.3817 5.99999 46.4347 5.99999L47.7504 2.09998C48.1373 0.899983 49.2208 0.299988 51.4651 0.299988C53.8643 0.299988 56.8825 0.299988 59.8234 0.299988ZM48.2921 9.22498C52.239 9.22498 58.1982 9.22498 62.1451 9.22498L60.8295 13.125C60.4425 14.325 59.3591 14.925 57.1147 14.925C53.1678 14.925 47.2086 14.925 43.2617 14.925L44.5773 11.025C44.8869 9.75 45.9704 9.22498 48.2921 9.22498ZM58.7399 18.075C54.7156 18.075 48.8338 18.075 44.8869 18.075C42.5651 18.075 41.5591 18.675 41.1721 19.875L39.8564 23.775C43.8808 23.775 49.7625 23.775 53.7095 23.775C56.0312 23.775 57.0373 23.175 57.4243 21.975L58.7399 18.075Z" fill="#565656"/>
<path id="Vector_3" d="M31.5757 5.7752H34.9809C37.9218 5.7752 37.2253 9.22518 35.7548 12.6002C34.4392 15.6002 32.1948 18.2252 29.4088 18.2252H23.7592C21.5148 18.2252 20.4314 18.8252 20.0444 20.1002L18.6514 24.0752H22.8305H26.9322C30.5696 24.0752 33.5105 23.7752 36.9931 20.8502C40.6305 17.7002 44.887 9.60019 44.1905 4.87519C43.6488 1.20019 41.5592 0.0751953 36.5288 0.0751953H27.3966L22.0566 14.9252H25.4618C27.474 14.9252 28.4801 14.9252 29.5635 12.2252L31.5757 5.7752Z" fill="#565656"/>
<path id="Vector_4" d="M15.6326 5.77508H13.0787C8.04822 5.77508 3.71431 18.1501 9.67344 18.1501H13.543C15.7874 18.1501 17.4126 18.9001 16.6387 21.0751L15.6326 24.0001H11.5308H8.20301C3.94649 23.9251 1.23779 21.9001 0.231703 18.9001C-0.851776 15.6001 0.696048 8.62507 5.02996 4.20007C7.58387 1.65007 11.0665 0.0750732 15.5552 0.0750732H23.8361L22.5204 3.67506C21.6691 6.00006 19.9665 5.85006 18.9604 5.85006L15.6326 5.77508Z" fill="#565656"/>
</g>
<defs>
<clipPath id="clip0_1315_130">
<rect width="89" height="24" fill="white"/>
</clipPath>
</defs>
</svg>
