<svg width="32" height="32" viewBox="0 0 32 32" fill="none" xmlns="http://www.w3.org/2000/svg">
<g id="tabler:list-search">
<path id="Vector" d="M26.0294 23.8529L29.9999 27.8235M2.99994 4H28.4117M2.99994 13.5294H9.35288M2.99994 23.0588H9.35288M14.1176 18.2941C14.1176 19.979 14.7869 21.5949 15.9783 22.7863C17.1697 23.9777 18.7856 24.6471 20.4705 24.6471C22.1554 24.6471 23.7713 23.9777 24.9627 22.7863C26.1541 21.5949 26.8235 19.979 26.8235 18.2941C26.8235 16.6092 26.1541 14.9933 24.9627 13.8019C23.7713 12.6105 22.1554 11.9412 20.4705 11.9412C18.7856 11.9412 17.1697 12.6105 15.9783 13.8019C14.7869 14.9933 14.1176 16.6092 14.1176 18.2941Z" stroke="#9D9D9D" stroke-width="2" stroke-linecap="round" stroke-linejoin="round"/>
</g>
</svg>
