<svg width="24" height="24" viewBox="0 0 24 24" fill="none" xmlns="http://www.w3.org/2000/svg">
<g id="uim:angle-up">
<path id="Vector" d="M8.879 16.243C8.87887 16.1117 8.90468 15.9816 8.95496 15.8603C9.00524 15.7389 9.079 15.6287 9.172 15.536L12.707 12L9.172 8.464C8.98984 8.2754 8.88905 8.02279 8.89133 7.7606C8.89361 7.4984 8.99877 7.24759 9.18418 7.06218C9.36959 6.87677 9.6204 6.7716 9.8826 6.76932C10.1448 6.76705 10.3974 6.86784 10.586 7.05L14.828 11.293C15.0155 11.4805 15.1208 11.7348 15.1208 12C15.1208 12.2652 15.0155 12.5195 14.828 12.707L10.586 16.95C10.4462 17.0898 10.268 17.185 10.074 17.2236C9.88008 17.2621 9.67905 17.2423 9.49635 17.1667C9.31365 17.091 9.15748 16.9629 9.0476 16.7985C8.93772 16.634 8.87904 16.4407 8.879 16.243Z" fill="#333333"/>
</g>
</svg>
