<svg width="86" height="84" viewBox="0 0 86 84" fill="none" xmlns="http://www.w3.org/2000/svg">
<path id="Vector" d="M16.323 64.1109C16.3231 64.2604 16.2938 64.4085 16.2366 64.5466C16.1795 64.6847 16.0957 64.8102 15.99 64.9159C15.8843 65.0216 15.7588 65.1054 15.6206 65.1626C15.4825 65.2197 15.3345 65.2491 15.185 65.2489H6.21998C6.07053 65.2489 5.92255 65.2195 5.78448 65.1623C5.64641 65.1051 5.52096 65.0213 5.41529 64.9156C5.30962 64.8099 5.22579 64.6845 5.1686 64.5464C5.11141 64.4084 5.08198 64.2604 5.08198 64.1109C5.08198 63.9615 5.11141 63.8135 5.1686 63.6754C5.22579 63.5374 5.30962 63.4119 5.41529 63.3062C5.52096 63.2006 5.64641 63.1167 5.78448 63.0596C5.92255 63.0024 6.07053 62.9729 6.21998 62.9729H15.185C15.3345 62.9728 15.4825 63.0021 15.6206 63.0593C15.7588 63.1164 15.8843 63.2003 15.99 63.306C16.0957 63.4117 16.1795 63.5372 16.2366 63.6753C16.2938 63.8134 16.3231 63.9615 16.323 64.1109ZM15.185 66.8999H6.21998C5.91816 66.8999 5.62871 67.0198 5.41529 67.2332C5.20187 67.4467 5.08198 67.7361 5.08198 68.0379C5.08198 68.3398 5.20187 68.6292 5.41529 68.8426C5.62871 69.056 5.91816 69.1759 6.21998 69.1759H15.185C15.4868 69.1759 15.7762 69.056 15.9897 68.8426C16.2031 68.6292 16.323 68.3398 16.323 68.0379C16.323 67.7361 16.2031 67.4467 15.9897 67.2332C15.7762 67.0198 15.4868 66.8999 15.185 66.8999ZM51.99 62.9699H43.025C42.7232 62.9699 42.4337 63.0898 42.2203 63.3032C42.0069 63.5167 41.887 63.8061 41.887 64.1079C41.887 64.4098 42.0069 64.6992 42.2203 64.9126C42.4337 65.126 42.7232 65.2459 43.025 65.2459H51.99C52.2918 65.2459 52.5812 65.126 52.7947 64.9126C53.0081 64.6992 53.128 64.4098 53.128 64.1079C53.128 63.8061 53.0081 63.5167 52.7947 63.3032C52.5812 63.0898 52.2918 62.9699 51.99 62.9699ZM51.99 66.8999H43.025C42.7232 66.8999 42.4337 67.0198 42.2203 67.2332C42.0069 67.4467 41.887 67.7361 41.887 68.0379C41.887 68.3398 42.0069 68.6292 42.2203 68.8426C42.4337 69.056 42.7232 69.1759 43.025 69.1759H51.99C52.2918 69.1759 52.5812 69.056 52.7947 68.8426C53.0081 68.6292 53.128 68.3398 53.128 68.0379C53.128 67.7361 53.0081 67.4467 52.7947 67.2332C52.5812 67.0198 52.2918 66.8999 51.99 66.8999ZM24.622 28.4439H33.588C33.8898 28.4439 34.1792 28.324 34.3927 28.1106C34.6061 27.8972 34.726 27.6077 34.726 27.3059C34.726 27.0041 34.6061 26.7147 34.3927 26.5012C34.1792 26.2878 33.8898 26.1679 33.588 26.1679H24.622C24.3202 26.1679 24.0307 26.2878 23.8173 26.5012C23.6039 26.7147 23.484 27.0041 23.484 27.3059C23.484 27.6077 23.6039 27.8972 23.8173 28.1106C24.0307 28.324 24.3202 28.4439 24.622 28.4439ZM24.622 32.3739H33.588C33.8898 32.3739 34.1792 32.254 34.3927 32.0406C34.6061 31.8272 34.726 31.5378 34.726 31.2359C34.726 30.9341 34.6061 30.6447 34.3927 30.4312C34.1792 30.2178 33.8898 30.0979 33.588 30.0979H24.622C24.3202 30.0979 24.0307 30.2178 23.8173 30.4312C23.6039 30.6447 23.484 30.9341 23.484 31.2359C23.484 31.5378 23.6039 31.8272 23.8173 32.0406C24.0307 32.254 24.3202 32.3739 24.622 32.3739ZM85.762 68.9859C85.7622 72.0394 84.775 75.0111 82.9477 77.4574C81.1203 79.9038 78.5509 81.6936 75.6228 82.5597C72.6947 83.4258 69.5651 83.3218 66.701 82.2632C63.8368 81.2046 61.3919 79.2482 59.731 76.6859L38.469 76.6639C38.375 76.6885 38.2782 76.701 38.181 76.7009C38.0831 76.701 37.9857 76.6885 37.891 76.6639L3.62698 76.6319C2.72853 76.629 1.86776 76.2706 1.23274 75.635C0.597722 74.9995 0.240085 74.1384 0.237976 73.2399V40.8179C0.239035 39.9812 0.571881 39.1791 1.16352 38.5875C1.75515 37.9958 2.55728 37.663 3.39398 37.6619H18.768C18.6836 37.3762 18.6405 37.0799 18.64 36.7819V4.01293C18.641 3.17554 18.9744 2.37281 19.5669 1.78106C20.1594 1.18931 20.9626 0.856933 21.8 0.856934H54.565C55.4018 0.857727 56.2042 1.19046 56.7961 1.78212C57.3879 2.37379 57.7209 3.17606 57.722 4.01293V36.7819C57.7215 37.0799 57.6784 37.3762 57.594 37.6619H72.968C73.8047 37.663 74.6068 37.9958 75.1984 38.5875C75.7901 39.1791 76.1229 39.9812 76.124 40.8179V55.5679C78.9308 56.5175 81.3697 58.3222 83.0983 60.7288C84.8269 63.1353 85.7584 66.0229 85.762 68.9859ZM53.336 49.7859L55.973 47.1389C56.0787 47.0327 56.2044 46.9484 56.3428 46.8909C56.4812 46.8334 56.6296 46.8038 56.7795 46.8038C56.9294 46.8038 57.0778 46.8334 57.2162 46.8909C57.3546 46.9484 57.4802 47.0327 57.586 47.1389L60.223 49.7859V39.9379H55.088C55.0233 39.9374 54.9588 39.9317 54.895 39.9209C54.7853 39.9322 54.6752 39.9379 54.565 39.9379H53.336V49.7859ZM34.936 12.9859L37.573 10.3389C37.6787 10.2327 37.8044 10.1484 37.9428 10.0909C38.0812 10.0334 38.2296 10.0038 38.3795 10.0038C38.5294 10.0038 38.6778 10.0334 38.8162 10.0909C38.9546 10.1484 39.0802 10.2327 39.186 10.3389L41.823 12.9859V3.13293H34.934L34.936 12.9859ZM20.919 36.7859C20.9192 37.0192 21.012 37.2429 21.177 37.4079C21.342 37.5729 21.5657 37.6657 21.799 37.6659H54.565C54.7983 37.6657 55.022 37.5729 55.1869 37.4079C55.3519 37.2429 55.4447 37.0192 55.445 36.7859V4.01293C55.4447 3.77962 55.3519 3.55595 55.1869 3.39097C55.022 3.226 54.7983 3.1332 54.565 3.13293H44.1V15.7329C44.0993 15.9579 44.032 16.1776 43.9065 16.3643C43.7811 16.551 43.6031 16.6963 43.3951 16.7819C43.187 16.8675 42.9583 16.8896 42.7378 16.8453C42.5172 16.8009 42.3148 16.6923 42.156 16.5329L38.38 12.7439L34.6 16.5349C34.4412 16.6943 34.2387 16.8029 34.0182 16.8473C33.7976 16.8916 33.5689 16.8695 33.3609 16.7839C33.1529 16.6983 32.9749 16.553 32.8494 16.3663C32.724 16.1796 32.6566 15.9599 32.656 15.7349V3.13493H21.8C21.5667 3.1352 21.343 3.228 21.178 3.39297C21.013 3.55795 20.9202 3.78162 20.92 4.01493L20.919 36.7859ZM16.533 49.7859L19.17 47.1389C19.2757 47.0327 19.4014 46.9484 19.5398 46.8909C19.6782 46.8334 19.8266 46.8038 19.9765 46.8038C20.1264 46.8038 20.2748 46.8334 20.4132 46.8909C20.5516 46.9484 20.6772 47.0327 20.783 47.1389L23.42 49.7859V39.9379H16.531L16.533 49.7859ZM37.043 74.3899V39.9379H25.694V52.5379C25.6933 52.7629 25.626 52.9826 25.5005 53.1693C25.3751 53.356 25.1971 53.5013 24.9891 53.5869C24.781 53.6725 24.5523 53.6946 24.3318 53.6503C24.1112 53.6059 23.9088 53.4973 23.75 53.3379L19.975 49.5489L16.2 53.3399C16.0412 53.4996 15.8387 53.6086 15.618 53.6531C15.3973 53.6976 15.1683 53.6757 14.9601 53.59C14.7519 53.5044 14.5737 53.3589 14.4482 53.172C14.3227 52.985 14.2554 52.7651 14.255 52.5399V39.9399H3.39398C3.16067 39.9402 2.93699 40.033 2.77201 40.198C2.60704 40.3629 2.51424 40.5866 2.51398 40.8199V73.2399C2.5145 73.5356 2.63211 73.819 2.84107 74.0281C3.05003 74.2373 3.33333 74.3551 3.62898 74.3559L37.043 74.3899ZM58.528 74.4109C57.5645 72.0837 57.2393 69.5417 57.5856 67.0469C57.932 64.552 58.9375 62.1947 60.4985 60.218C62.0595 58.2413 64.1195 56.7167 66.466 55.8014C68.8126 54.8861 71.3608 54.6133 73.848 55.0109V40.8179C73.8477 40.5846 73.7549 40.3609 73.5899 40.196C73.425 40.031 73.2013 39.9382 72.968 39.9379H62.5V52.5379C62.4993 52.7629 62.432 52.9826 62.3065 53.1693C62.1811 53.356 62.0031 53.5013 61.7951 53.5869C61.587 53.6725 61.3583 53.6946 61.1378 53.6503C60.9172 53.6059 60.7148 53.4973 60.556 53.3379L56.78 49.5509L53.005 53.3399C52.8462 53.4996 52.6437 53.6086 52.423 53.6531C52.2023 53.6976 51.9733 53.6757 51.7651 53.59C51.5569 53.5044 51.3787 53.3589 51.2532 53.172C51.1277 52.985 51.0604 52.7651 51.06 52.5399V39.9399H39.319V74.3919L58.528 74.4109ZM83.486 68.9859C83.4862 66.636 82.7896 64.3388 81.4843 62.3848C80.1789 60.4308 78.3235 58.9077 76.1526 58.0081C73.9817 57.1085 71.5928 56.8728 69.288 57.3308C66.9832 57.7889 64.8659 58.92 63.2039 60.5813C61.5419 62.2426 60.4099 64.3594 59.9509 66.664C59.4918 68.9687 59.7265 71.3577 60.6252 73.529C61.5239 75.7003 63.0462 77.5563 64.9997 78.8624C66.9532 80.1686 69.2501 80.8661 71.6 80.8669C74.7503 80.8632 77.7707 79.6105 79.9988 77.3833C82.2269 75.1561 83.4809 72.1363 83.486 68.9859ZM76.621 64.6859L70.635 71.0589L66.327 68.5719C66.0655 68.421 65.7547 68.3802 65.4631 68.4584C65.1715 68.5366 64.9229 68.7274 64.772 68.9889C64.6211 69.2504 64.5802 69.5612 64.6584 69.8528C64.7366 70.1444 64.9275 70.393 65.189 70.5439L70.277 73.4819C70.4995 73.6102 70.7589 73.6596 71.013 73.622C71.2671 73.5844 71.5011 73.4621 71.677 73.2749L78.277 66.2449C78.4837 66.0249 78.5946 65.7318 78.5852 65.4301C78.5758 65.1283 78.447 64.8427 78.227 64.6359C78.007 64.4292 77.7139 64.3183 77.4121 64.3277C77.1104 64.3371 76.8247 64.4659 76.618 64.6859H76.621Z" fill="#F2672E"/>
</svg>
