<svg width="86" height="86" viewBox="0 0 86 86" fill="none" xmlns="http://www.w3.org/2000/svg">
<path id="Vector" d="M85.9562 69.9828L81.0693 25.5002C80.5212 20.5129 76.8154 16.8935 72.2584 16.8935H66.3633V14.5281C66.3633 6.51674 59.8064 0 51.7478 0C43.6892 0 37.1324 6.51766 37.1324 14.529V16.8945H31.2372C26.6793 16.8945 22.9744 20.5139 22.4264 25.5011L20.8331 40.0053H1.48511C0.664464 40.0053 0 40.6667 0 41.4815V53.1784C0 53.9941 0.665388 54.6546 1.48511 54.6546H1.7679V84.5238C1.7679 85.3395 2.43329 86 3.25301 86H47.4579C48.2785 86 48.943 85.3386 48.943 84.5238V78.911H77.1453C79.708 78.911 82.2577 77.7801 83.9665 75.8868C85.483 74.2048 86.19 72.1085 85.9562 69.9828ZM40.1035 14.529C40.1035 8.14638 45.3277 2.95339 51.7487 2.95339C58.1697 2.95339 63.394 8.14638 63.394 14.529V16.8945H40.1035V14.529ZM2.97022 42.9568H47.7407V51.7012H2.97022V42.9568ZM4.73812 66.4773L20.3442 54.6546H28.4638L4.73812 72.6285V66.4773ZM4.73812 76.3416L33.3637 54.6546H41.4833L4.73812 82.4927V76.3416ZM45.9728 54.9651V61.1162L17.0256 83.0466H8.90604L45.9728 54.9651ZM45.9728 64.8293V70.9805L30.0451 83.0466H21.9255L45.9728 64.8293ZM15.4435 54.6546L4.73812 62.7652V54.6546H15.4435ZM34.9458 83.0466L45.9728 74.6926V83.0466H34.9458ZM81.755 73.9145C80.6007 75.1933 78.8781 75.9576 77.1453 75.9576H48.943V54.6546H49.2258C50.0464 54.6546 50.7109 53.9932 50.7109 53.1784V41.4806C50.7109 40.6649 50.0455 40.0044 49.2258 40.0044H23.8218L25.3799 25.8208C25.696 22.9436 27.6635 19.846 31.2372 19.846H37.1324V23.8503C34.7924 24.4979 33.068 26.6301 33.068 29.16C33.068 32.2015 35.5576 34.6763 38.6175 34.6763C41.6773 34.6763 44.167 32.2015 44.167 29.16C44.167 26.6301 42.4425 24.4979 40.1026 23.8503V19.846H63.393V23.8503C61.0531 24.4979 59.3286 26.6301 59.3286 29.16C59.3286 32.2015 61.8183 34.6763 64.8781 34.6763C67.938 34.6763 70.4277 32.2015 70.4277 29.16C70.4277 26.6301 68.7032 24.4979 66.3633 23.8503V19.846H72.2584C75.8321 19.846 77.7996 22.9427 78.1157 25.8208L83.0026 70.3034C83.144 71.584 82.7004 72.8664 81.755 73.9145ZM38.6184 26.597C40.0407 26.597 41.1977 27.7471 41.1977 29.1609C41.1977 30.5747 40.0407 31.7248 38.6184 31.7248C37.1961 31.7248 36.0391 30.5747 36.0391 29.1609C36.0391 27.7471 37.1961 26.597 38.6184 26.597ZM64.8791 26.597C66.3013 26.597 67.4584 27.7471 67.4584 29.1609C67.4584 30.5747 66.3013 31.7248 64.8791 31.7248C63.4568 31.7248 62.2998 30.5747 62.2998 29.1609C62.2998 27.7471 63.4568 26.597 64.8791 26.597Z" fill="#F2672E"/>
</svg>
