<svg width="16" height="16" viewBox="0 0 16 16" fill="none" xmlns="http://www.w3.org/2000/svg">
<path id="Vector" d="M14.7692 4.4808H12.0708C12.1008 4.45441 12.1315 4.42881 12.1608 4.40081C12.3944 4.18497 12.5827 3.92131 12.7138 3.62635C12.845 3.33138 12.9162 3.01143 12.9231 2.68653C12.9332 2.33109 12.8733 1.97726 12.7472 1.64675C12.621 1.31624 12.4313 1.01603 12.1895 0.764556C11.9477 0.513077 11.6591 0.315636 11.3413 0.184352C11.0236 0.0530691 10.6833 -0.00928543 10.3415 0.00111684C10.029 0.00811783 9.72117 0.0821391 9.43739 0.218547C9.1536 0.354955 8.89995 0.550813 8.69231 0.793862C8.40499 1.14015 8.1714 1.53096 8 1.95218C7.8286 1.53096 7.59502 1.14015 7.30769 0.793862C7.10005 0.550813 6.8464 0.354955 6.56261 0.218547C6.27883 0.0821391 5.97102 0.00811783 5.65846 0.00111684C5.31667 -0.00928543 4.97644 0.0530691 4.65866 0.184352C4.34088 0.315636 4.05225 0.513077 3.8105 0.764556C3.56875 1.01603 3.37897 1.31624 3.25283 1.64675C3.12668 1.97726 3.06682 2.33109 3.07692 2.68653C3.08376 3.01143 3.15499 3.33138 3.28616 3.62635C3.41733 3.92131 3.60561 4.18497 3.83923 4.40081C3.86846 4.42721 3.89923 4.45281 3.92923 4.4808H1.23077C0.904349 4.4808 0.591298 4.61565 0.360484 4.85568C0.12967 5.09571 0 5.42126 0 5.76072V8.32054C0 8.65999 0.12967 8.98554 0.360484 9.22557C0.591298 9.4656 0.904349 9.60045 1.23077 9.60045V14.7201C1.23077 15.0595 1.36044 15.3851 1.59125 15.6251C1.82207 15.8652 2.13512 16 2.46154 16H13.5385C13.8649 16 14.1779 15.8652 14.4087 15.6251C14.6396 15.3851 14.7692 15.0595 14.7692 14.7201V9.60045C15.0957 9.60045 15.4087 9.4656 15.6395 9.22557C15.8703 8.98554 16 8.65999 16 8.32054V5.76072C16 5.42126 15.8703 5.09571 15.6395 4.85568C15.4087 4.61565 15.0957 4.4808 14.7692 4.4808ZM9.61539 1.6418C9.71282 1.52991 9.83145 1.44017 9.96383 1.37822C10.0962 1.31627 10.2395 1.28346 10.3846 1.28183H10.4223C10.5924 1.28293 10.7606 1.31934 10.9171 1.38892C11.0735 1.45849 11.215 1.55984 11.3333 1.68701C11.4516 1.81419 11.5442 1.96463 11.6059 2.12953C11.6675 2.29443 11.6969 2.47047 11.6923 2.64733C11.6907 2.79828 11.6592 2.94726 11.5996 3.08492C11.54 3.22258 11.4538 3.34595 11.3462 3.44728C10.6162 4.11923 9.40462 4.35601 8.65385 4.43921C8.74615 3.59207 9 2.36095 9.61539 1.6418ZM4.68539 1.6706C4.9238 1.42269 5.24669 1.28268 5.58385 1.28103H5.62154C5.76669 1.28266 5.90995 1.31547 6.04233 1.37742C6.1747 1.43937 6.29333 1.52911 6.39077 1.641C7.03615 2.39935 7.26385 3.65686 7.34385 4.43441C6.59615 4.35441 5.38692 4.11443 4.65769 3.44328C4.55009 3.34195 4.4638 3.21858 4.40423 3.08092C4.34466 2.94326 4.3131 2.79428 4.31154 2.64333C4.30677 2.46353 4.33717 2.2846 4.40091 2.11739C4.46464 1.95018 4.56038 1.79817 4.68231 1.6706H4.68539ZM1.23077 5.76072H7.38462V8.32054H1.23077V5.76072ZM2.46154 9.60045H7.38462V14.7201H2.46154V9.60045ZM13.5385 14.7201H8.61539V9.60045H13.5385V14.7201ZM14.7692 8.32054H8.61539V5.76072H14.7692V8.32054Z" fill="#F2672E"/>
</svg>
