<svg width="78" height="86" viewBox="0 0 78 86" fill="none" xmlns="http://www.w3.org/2000/svg">
<path id="Vector" d="M25.529 43.844C25.5291 43.9935 25.4998 44.1416 25.4426 44.2797C25.3855 44.4178 25.3017 44.5433 25.196 44.649C25.0903 44.7547 24.9648 44.8385 24.8266 44.8957C24.6885 44.9528 24.5405 44.9822 24.391 44.982H9.34899C9.04717 44.982 8.75771 44.8621 8.5443 44.6487C8.33088 44.4353 8.21099 44.1459 8.21099 43.844C8.21099 43.5422 8.33088 43.2528 8.5443 43.0394C8.75771 42.8259 9.04717 42.706 9.34899 42.706H24.391C24.5405 42.7059 24.6885 42.7353 24.8266 42.7924C24.9648 42.8495 25.0903 42.9334 25.196 43.0391C25.3017 43.1448 25.3855 43.2703 25.4426 43.4084C25.4998 43.5465 25.5291 43.6946 25.529 43.844ZM24.391 49.3H9.34899C9.05288 49.3088 8.77184 49.4326 8.56549 49.6452C8.35915 49.8577 8.24373 50.1423 8.24373 50.4385C8.24373 50.7348 8.35915 51.0194 8.56549 51.2319C8.77184 51.4445 9.05288 51.5683 9.34899 51.577H24.391C24.6871 51.5683 24.9681 51.4445 25.1745 51.2319C25.3808 51.0194 25.4962 50.7348 25.4962 50.4385C25.4962 50.1423 25.3808 49.8577 25.1745 49.6452C24.9681 49.4326 24.6871 49.3088 24.391 49.3ZM77.838 56.322C77.9771 57.0316 77.9373 57.7647 77.722 58.455C77.4823 59.1356 77.0743 59.7445 76.536 60.225C76.0534 60.6594 75.5326 61.0493 74.98 61.39C74.836 61.483 74.69 61.575 74.546 61.666C74.184 61.895 73.841 62.111 73.528 62.335C73.171 62.5708 72.8532 62.861 72.586 63.195C72.349 63.5482 72.1695 63.9367 72.054 64.346C71.934 64.717 71.831 65.114 71.723 65.534C71.682 65.691 71.642 65.847 71.601 66.002C71.4476 66.6267 71.2388 67.2365 70.977 67.824L70.958 67.862L76.811 78.862C76.9215 79.0692 76.9652 79.3054 76.9362 79.5383C76.9072 79.7713 76.8069 79.9895 76.6489 80.1632C76.491 80.3369 76.2832 80.4575 76.0541 80.5085C75.825 80.5595 75.5857 80.5384 75.369 80.448L68.552 77.61L67.1 84.848C67.0538 85.078 66.9377 85.288 66.7675 85.4494C66.5974 85.6109 66.3815 85.7158 66.1495 85.7498C65.9174 85.7838 65.6805 85.7454 65.4712 85.6396C65.2618 85.5339 65.0903 85.366 64.98 85.159L58.613 73.2C58.583 73.216 58.553 73.234 58.522 73.249C57.8779 73.6177 57.1486 73.8116 56.4065 73.8116C55.6644 73.8116 54.9351 73.6177 54.291 73.249C54.26 73.233 54.23 73.216 54.2 73.199L47.837 85.159C47.7394 85.3406 47.5944 85.4923 47.4175 85.598C47.2405 85.7037 47.0381 85.7593 46.832 85.759C46.7768 85.759 46.7216 85.755 46.667 85.747C46.4351 85.7132 46.2193 85.6086 46.0491 85.4475C45.8789 85.2864 45.7625 85.0767 45.716 84.847L44.261 77.61L37.443 80.445C37.2263 80.5357 36.9868 80.5571 36.7575 80.5062C36.5281 80.4554 36.3201 80.3348 36.162 80.1611C36.0039 79.9873 35.9035 79.7689 35.8745 79.5358C35.8455 79.3026 35.8893 79.0662 36 78.859L41.853 67.859L41.834 67.821C41.5726 67.2338 41.3645 66.6244 41.212 66C41.17 65.844 41.129 65.686 41.089 65.529C40.98 65.11 40.878 64.714 40.759 64.344L40.732 64.265H4.60798C3.40855 64.2637 2.25862 63.7867 1.4105 62.9385C0.562368 62.0904 0.0853078 60.9405 0.0839844 59.741V4.76204C0.0853078 3.5626 0.562368 2.41268 1.4105 1.56455C2.25862 0.71642 3.40855 0.239361 4.60798 0.238037H59.588C60.7874 0.239361 61.9373 0.71642 62.7855 1.56455C63.6336 2.41268 64.1107 3.5626 64.112 4.76204V32.495C64.484 32.495 64.873 32.476 65.282 32.456C65.445 32.447 65.607 32.439 65.769 32.433C66.4128 32.3917 67.0591 32.4081 67.7 32.482C68.4128 32.5462 69.0947 32.8036 69.6721 33.2265C70.2495 33.6494 70.7007 34.2218 70.977 34.882C71.2389 35.4699 71.4477 36.08 71.601 36.705C71.642 36.86 71.682 37.016 71.723 37.173C71.831 37.593 71.934 37.99 72.054 38.361C72.1695 38.7704 72.349 39.1588 72.586 39.512C72.8535 39.8458 73.1713 40.136 73.528 40.372C73.84 40.595 74.18 40.81 74.541 41.037C74.687 41.13 74.834 41.223 74.979 41.317C75.532 41.658 76.0532 42.0483 76.536 42.483C77.0743 42.9636 77.4823 43.5725 77.722 44.253C77.9373 44.943 77.9771 45.6758 77.838 46.385C77.715 47.033 77.535 47.6688 77.3 48.285C77.2427 48.443 77.185 48.6017 77.127 48.761C76.972 49.184 76.827 49.583 76.706 49.976C76.3703 50.8644 76.3703 51.8447 76.706 52.733C76.825 53.126 76.971 53.525 77.126 53.948C77.1847 54.1067 77.2427 54.2654 77.3 54.424C77.5345 55.0394 77.7145 55.6752 77.838 56.322ZM25.879 21.669L31.621 15.906C31.7267 15.7998 31.8524 15.7155 31.9908 15.658C32.1292 15.6005 32.2776 15.5709 32.4275 15.5709C32.5774 15.5709 32.7258 15.6005 32.8642 15.658C33.0026 15.7155 33.1282 15.7998 33.234 15.906L38.976 21.669V2.51404H25.876L25.879 21.669ZM4.60798 61.991H38.775C38.613 61.885 38.445 61.779 38.275 61.669C38.128 61.577 37.981 61.484 37.836 61.39C37.2829 61.049 36.7618 60.6588 36.279 60.224C35.7407 59.7435 35.3327 59.1346 35.093 58.454C34.8775 57.7637 34.838 57.0305 34.978 56.321C35.101 55.6732 35.2807 55.0374 35.515 54.421C35.572 54.262 35.63 54.104 35.689 53.945C35.844 53.522 35.989 53.123 36.11 52.729C36.4446 51.8405 36.4446 50.8606 36.11 49.972C35.99 49.579 35.844 49.18 35.689 48.757C35.6303 48.5977 35.5723 48.439 35.515 48.281C35.2806 47.6647 35.1009 47.0289 34.978 46.381C34.838 45.6716 34.8775 44.9384 35.093 44.248C35.3325 43.5674 35.7409 42.9587 36.28 42.479C36.7623 42.0438 37.2831 41.6532 37.836 41.312C37.9813 41.2187 38.127 41.1264 38.273 41.035C38.634 40.807 38.973 40.591 39.287 40.368C39.644 40.132 39.9621 39.8418 40.23 39.508C40.4661 39.1544 40.6456 38.766 40.762 38.357C40.882 37.985 40.984 37.589 41.093 37.169C41.133 37.012 41.173 36.856 41.215 36.701C41.3677 36.076 41.5762 35.4659 41.838 34.878C42.1144 34.2177 42.5657 33.6452 43.1433 33.2223C43.7209 32.7994 44.403 32.5421 45.116 32.478C45.7569 32.4041 46.4031 32.3877 47.047 32.429C47.209 32.435 47.371 32.443 47.533 32.452C47.971 32.474 48.384 32.494 48.779 32.491C49.2163 32.5023 49.6527 32.4463 50.073 32.325C50.4887 32.1671 50.8784 31.9477 51.229 31.674C51.529 31.454 51.841 31.207 52.166 30.946C52.321 30.821 52.477 30.695 52.633 30.572C53.1508 30.1485 53.7064 29.7736 54.293 29.452C54.9362 29.0801 55.666 28.8843 56.409 28.8843C57.152 28.8843 57.8818 29.0801 58.525 29.452C59.112 29.7734 59.668 30.1483 60.186 30.572C60.342 30.695 60.497 30.821 60.653 30.945C60.977 31.207 61.284 31.454 61.589 31.674C61.676 31.737 61.759 31.794 61.839 31.848V4.76204C61.8382 4.16607 61.6011 3.59475 61.1797 3.17334C60.7583 2.75193 60.187 2.51483 59.591 2.51404H41.253V24.424C41.252 24.649 41.1845 24.8686 41.0589 25.0552C40.9333 25.2418 40.7553 25.3871 40.5473 25.4726C40.3392 25.5582 40.1105 25.5803 39.89 25.536C39.6694 25.4918 39.4669 25.3832 39.308 25.224L32.427 18.318L25.547 25.224C25.3881 25.3832 25.1855 25.4918 24.965 25.536C24.7444 25.5803 24.5157 25.5582 24.3077 25.4726C24.0997 25.3871 23.9216 25.2418 23.796 25.0552C23.6705 24.8686 23.6029 24.649 23.602 24.424V2.51404H4.60798C4.01202 2.51483 3.4407 2.75193 3.01929 3.17334C2.59788 3.59475 2.36078 4.16607 2.35998 4.76204V59.743C2.36078 60.339 2.59788 60.9103 3.01929 61.3317C3.4407 61.7531 4.01202 61.9902 4.60798 61.991ZM52.322 71.891L52.16 71.762C51.836 71.502 51.53 71.255 51.226 71.035C50.8754 70.7617 50.4857 70.5425 50.07 70.385C49.6499 70.2628 49.2133 70.2068 48.776 70.219C48.376 70.214 47.966 70.236 47.527 70.258L47.044 70.281C46.4001 70.322 45.7539 70.3053 45.113 70.231C44.5321 70.1629 43.9706 69.9801 43.461 69.693L39.505 77.126L44.666 74.98C44.8213 74.9154 44.989 74.886 45.157 74.8939C45.3251 74.9018 45.4892 74.9469 45.6378 75.0259C45.7863 75.1049 45.9154 75.2158 46.0159 75.3507C46.1164 75.4856 46.1858 75.6411 46.219 75.806L47.319 81.287L52.322 71.891ZM73.308 77.126L69.352 69.693C68.8424 69.9801 68.2809 70.1629 67.7 70.231C67.0588 70.3052 66.4122 70.322 65.768 70.281L65.285 70.258C64.847 70.236 64.433 70.215 64.036 70.219C63.599 70.2068 63.1627 70.2628 62.743 70.385C62.3269 70.5425 61.9369 70.7616 61.586 71.035C61.286 71.256 60.975 71.502 60.65 71.764L60.491 71.891L65.491 81.291L66.591 75.81C66.6242 75.6451 66.6935 75.4896 66.794 75.3547C66.8945 75.2198 67.0237 75.1089 67.1722 75.0299C67.3207 74.9509 67.4849 74.9058 67.653 74.8979C67.821 74.89 67.9887 74.9194 68.144 74.984L73.308 77.126ZM74.178 51.359C74.1922 50.6651 74.3102 49.9771 74.528 49.318C74.666 48.864 74.828 48.418 74.99 47.981C75.046 47.827 75.1016 47.6737 75.157 47.521C75.3448 47.0317 75.4907 46.5272 75.593 46.013C75.6672 45.671 75.6566 45.316 75.562 44.979C75.4383 44.6576 75.237 44.3718 74.976 44.147C74.5934 43.8088 74.1822 43.5043 73.747 43.237C73.607 43.147 73.465 43.058 73.324 42.969C72.953 42.734 72.569 42.491 72.205 42.231C71.0652 41.5019 70.2385 40.3736 69.887 39.067C69.747 38.631 69.631 38.183 69.519 37.749C69.48 37.598 69.441 37.449 69.401 37.298C69.2822 36.8059 69.1206 36.325 68.918 35.861C68.8045 35.5433 68.5983 35.2668 68.3261 35.0673C68.0539 34.8679 67.7282 34.7546 67.391 34.742C66.8845 34.6878 66.3743 34.6774 65.866 34.711C65.71 34.717 65.553 34.725 65.396 34.733C64.945 34.756 64.479 34.779 64.016 34.775C63.6057 34.7738 63.1961 34.7404 62.791 34.675C62.7738 34.6733 62.7568 34.6707 62.74 34.667C62.4973 34.6257 62.258 34.5666 62.024 34.49C61.387 34.2604 60.789 33.9342 60.251 33.523C59.899 33.269 59.551 32.992 59.222 32.723C59.074 32.603 58.922 32.483 58.774 32.365C58.3681 32.0301 57.933 31.7323 57.474 31.475C57.1547 31.2757 56.7859 31.17 56.4095 31.17C56.0331 31.17 55.6643 31.2757 55.345 31.475C54.8859 31.7322 54.4508 32.0301 54.045 32.365C53.895 32.483 53.745 32.603 53.597 32.723C53.264 32.991 52.92 33.268 52.568 33.523C52.0308 33.9349 51.433 34.2612 50.796 34.49C50.1506 34.6882 49.478 34.7833 48.803 34.772C48.34 34.772 47.874 34.753 47.423 34.73C47.266 34.722 47.11 34.714 46.954 34.708C46.4457 34.6746 45.9355 34.6846 45.429 34.738C45.0916 34.7508 44.7657 34.8644 44.4934 35.064C44.2211 35.2636 44.0148 35.5401 43.901 35.858C43.6988 36.3217 43.5375 36.8022 43.419 37.294C43.379 37.444 43.34 37.594 43.301 37.746C43.189 38.18 43.073 38.628 42.932 39.064C42.5803 40.3703 41.7542 41.4985 40.615 42.228C40.25 42.489 39.865 42.728 39.493 42.967L39.072 43.234C38.6371 43.5013 38.2262 43.8058 37.844 44.144C37.5827 44.3683 37.381 44.6538 37.257 44.975C37.1624 45.3123 37.1517 45.6677 37.226 46.01C37.3284 46.5241 37.4743 47.0286 37.662 47.518C37.7167 47.6707 37.7727 47.824 37.83 47.978C37.989 48.412 38.153 48.86 38.292 49.315C38.7587 50.6353 38.7587 52.0757 38.292 53.396C38.153 53.851 37.992 54.296 37.83 54.734C37.773 54.887 37.717 55.041 37.662 55.193C37.4744 55.6825 37.3286 56.187 37.226 56.701C37.1517 57.0434 37.1624 57.3987 37.257 57.736C37.3807 58.0577 37.5824 58.3436 37.844 58.568C38.2261 58.9062 38.637 59.2104 39.072 59.477C39.213 59.568 39.354 59.657 39.495 59.746C39.866 59.981 40.25 60.224 40.615 60.484C41.1697 60.8585 41.6607 61.3197 42.069 61.85C42.2379 62.0819 42.3855 62.3286 42.51 62.587C42.6756 62.929 42.8159 63.2826 42.93 63.645C43.07 64.079 43.186 64.527 43.298 64.959C43.337 65.111 43.376 65.259 43.416 65.414C43.5356 65.906 43.6971 66.3867 43.899 66.851C43.957 66.9786 44.0238 67.1019 44.099 67.22C44.2017 67.3821 44.3324 67.5247 44.485 67.641C44.7653 67.8262 45.0873 67.9386 45.422 67.968C45.9285 68.0221 46.4387 68.0329 46.947 68C47.101 67.994 47.257 67.986 47.413 67.978C47.83 67.957 48.261 67.935 48.69 67.935H48.8C49.4751 67.9235 50.1478 68.0191 50.793 68.218C51.4297 68.4472 52.0274 68.773 52.565 69.184C52.916 69.438 53.259 69.715 53.591 69.984C53.741 70.104 53.891 70.225 54.042 70.344C54.4481 70.6787 54.8831 70.9765 55.342 71.234C55.6611 71.4337 56.03 71.5396 56.4065 71.5396C56.783 71.5396 57.1518 71.4337 57.471 71.234C57.9301 70.9772 58.3651 70.6797 58.771 70.345C58.921 70.227 59.071 70.106 59.219 69.986C59.552 69.719 59.896 69.442 60.247 69.186C60.7849 68.7749 61.3829 68.4491 62.02 68.22C62.6652 68.021 63.3379 67.9255 64.013 67.937C64.477 67.937 64.944 67.957 65.396 67.98C65.551 67.988 65.707 67.996 65.862 68.002C66.3703 68.0356 66.8805 68.0253 67.387 67.971C67.7213 67.9415 68.043 67.8291 68.323 67.644C68.4759 67.528 68.6066 67.3854 68.709 67.223C68.7842 67.1049 68.851 66.9816 68.909 66.854C69.1114 66.39 69.273 65.9092 69.392 65.417C69.432 65.267 69.471 65.117 69.51 64.966C69.622 64.532 69.738 64.083 69.878 63.648C70.2295 62.3414 71.0562 61.2131 72.196 60.484C72.562 60.222 72.948 59.979 73.321 59.743L73.738 59.477C74.1731 59.21 74.5843 58.9059 74.967 58.568C75.228 58.3433 75.4293 58.0575 75.553 57.736C75.6476 57.3987 75.6582 57.0434 75.584 56.701C75.4814 56.187 75.3356 55.6825 75.148 55.193C75.0933 55.0404 75.0373 54.887 74.98 54.733C74.821 54.299 74.657 53.851 74.519 53.396C74.3041 52.7365 74.1892 52.0486 74.178 51.355V51.359ZM70.178 51.359C70.1774 54.0832 69.369 56.7461 67.855 59.0108C66.3411 61.2756 64.1896 63.0406 61.6725 64.0826C59.1555 65.1246 56.386 65.3968 53.7142 64.8649C51.0425 64.3329 48.5885 63.0206 46.6625 61.094C44.7366 59.1673 43.4252 56.7128 42.8942 54.0409C42.3632 51.3689 42.6364 48.5995 43.6793 46.0829C44.7222 43.5662 46.488 41.4153 48.7533 39.9022C51.0186 38.3891 53.6818 37.5816 56.406 37.582C60.0577 37.586 63.5587 39.0383 66.1409 41.6204C68.7232 44.2024 70.1758 47.7033 70.18 51.355L70.178 51.359ZM67.901 51.359C67.901 49.0846 67.2265 46.8611 65.9629 44.97C64.6992 43.0788 62.9032 41.6048 60.8018 40.7344C58.7005 39.864 56.3882 39.6363 54.1574 40.08C51.9267 40.5237 49.8776 41.619 48.2693 43.2273C46.661 44.8356 45.5657 46.8847 45.122 49.1155C44.6782 51.3463 44.906 53.6586 45.7764 55.7599C46.6468 57.8612 48.1208 59.6573 50.0119 60.9209C51.9031 62.1846 54.1265 62.859 56.401 62.859C59.4508 62.8564 62.3748 61.6434 64.5308 59.4864C66.6869 57.3294 67.8987 54.4048 67.9 51.355L67.901 51.359ZM63.834 47.9C64.0585 47.9175 64.2728 48.0011 64.4498 48.1404C64.6267 48.2796 64.7584 48.4683 64.8281 48.6824C64.8978 48.8965 64.9024 49.1265 64.8413 49.3433C64.7803 49.56 64.6562 49.7538 64.485 49.9L60.947 52.9L62.047 57.4C62.1004 57.619 62.0875 57.8488 62.01 58.0604C61.9325 58.272 61.7938 58.4558 61.6117 58.5885C61.4295 58.7211 61.212 58.7967 60.9869 58.8055C60.7617 58.8143 60.539 58.756 60.347 58.638L56.407 56.198L52.468 58.638C52.2759 58.7555 52.0533 58.8134 51.8284 58.8043C51.6035 58.7953 51.3862 58.7197 51.2043 58.5872C51.0223 58.4546 50.8837 58.2711 50.806 58.0598C50.7284 57.8485 50.7151 57.6189 50.768 57.4L51.868 52.9L48.327 49.9C48.1557 49.7537 48.0317 49.5599 47.9706 49.3431C47.9096 49.1262 47.9143 48.8962 47.9841 48.682C48.0539 48.4678 48.1857 48.2792 48.3628 48.14C48.5399 48.0008 48.7544 47.9173 48.979 47.9L53.6 47.558L55.353 43.269C55.4385 43.0598 55.5843 42.8807 55.7719 42.7547C55.9596 42.6287 56.1805 42.5614 56.4065 42.5614C56.6325 42.5614 56.8534 42.6287 57.041 42.7547C57.2287 42.8807 57.3745 43.0598 57.46 43.269L59.213 47.558L63.834 47.9ZM60.888 49.964L58.342 49.776C58.1313 49.7607 57.9291 49.6871 57.7578 49.5635C57.5865 49.4399 57.4529 49.2711 57.372 49.076L56.406 46.712L55.44 49.076C55.3592 49.271 55.2258 49.4398 55.0547 49.5634C54.8836 49.687 54.6815 49.7606 54.471 49.776L51.924 49.964L53.874 51.613C54.0355 51.7501 54.1557 51.9295 54.221 52.131C54.2864 52.3325 54.2943 52.5483 54.244 52.754L53.636 55.234L55.807 53.889C55.9873 53.7776 56.195 53.7185 56.407 53.7185C56.6189 53.7185 56.8267 53.7776 57.007 53.889L59.177 55.234L58.569 52.754C58.5188 52.5482 58.5269 52.3324 58.5924 52.1308C58.6579 51.9293 58.7783 51.75 58.94 51.613L60.888 49.964Z" fill="#F2672E"/>
</svg>
