<svg width="66" height="86" viewBox="0 0 66 86" fill="none" xmlns="http://www.w3.org/2000/svg">
<path id="Vector" d="M64.3 38.7779C64.214 38.5379 64.126 38.2979 64.038 38.0569C63.809 37.4329 63.572 36.7869 63.385 36.1709C63.1376 35.4367 62.9995 34.6702 62.975 33.8959C62.9994 33.1212 63.1376 32.3544 63.385 31.6199C63.572 31.0039 63.809 30.3589 64.038 29.7349C64.126 29.4939 64.214 29.2529 64.3 29.0129C64.6456 28.1078 64.9113 27.1743 65.094 26.2229C65.2897 25.2374 65.2368 24.2188 64.94 23.2589C64.6048 22.3151 64.0365 21.4714 63.288 20.8059C62.5786 20.1691 61.8127 19.5981 61 19.0999C60.779 18.9579 60.557 18.8179 60.335 18.6769C59.778 18.3249 59.252 17.9929 58.763 17.6429C58.1666 17.2472 57.6364 16.7599 57.192 16.1989C56.7917 15.6091 56.4879 14.9593 56.292 14.2739C56.104 13.6909 55.946 13.0739 55.778 12.4289C55.7167 12.1922 55.6547 11.9556 55.592 11.7189C55.3683 10.8008 55.0627 9.9045 54.679 9.04089C54.3006 8.12338 53.6771 7.32766 52.8767 6.74085C52.0763 6.15403 51.1298 5.79875 50.141 5.71389C49.1986 5.60612 48.2486 5.58236 47.302 5.64289C47.056 5.65289 46.81 5.66589 46.563 5.67789C45.888 5.71189 45.248 5.74389 44.63 5.73889C43.901 5.75669 43.1736 5.66088 42.474 5.45489C41.7816 5.19542 41.1323 4.83301 40.548 4.37989C40.072 4.03489 39.598 3.65389 39.097 3.24989C38.862 3.06089 38.626 2.87089 38.389 2.68489C37.6285 2.06213 36.8124 1.51048 35.951 1.03689C35.0556 0.514516 34.0376 0.239258 33.001 0.239258C31.9644 0.239258 30.9464 0.514516 30.051 1.03689C29.1889 1.50835 28.3721 2.05835 27.611 2.67989C27.374 2.86589 27.139 3.05589 26.903 3.24489C26.403 3.64489 25.929 4.02989 25.452 4.37489C24.8678 4.82818 24.2185 5.1906 23.526 5.44989C22.8268 5.65582 22.0997 5.75164 21.371 5.73389C20.75 5.73889 20.113 5.70689 19.437 5.67289C19.19 5.66089 18.944 5.64789 18.698 5.63789C17.7518 5.57735 16.802 5.60111 15.86 5.70889C14.8707 5.79259 13.9236 6.14741 13.1228 6.73436C12.3221 7.3213 11.6986 8.11766 11.321 9.03589C10.9376 9.89971 10.6317 10.7959 10.407 11.7139C10.344 11.9499 10.283 12.1879 10.222 12.4249C10.054 13.0739 9.896 13.6859 9.708 14.2689C9.51209 14.9543 9.20829 15.6041 8.808 16.1939C8.36359 16.7549 7.8334 17.2422 7.237 17.6379C6.748 17.9879 6.221 18.3209 5.664 18.6729C5.442 18.8129 5.22 18.9529 5 19.0949C4.18784 19.5959 3.42212 20.1685 2.712 20.8059C1.964 21.4716 1.39612 22.3153 1.061 23.2589C0.764194 24.2188 0.711265 25.2374 0.907002 26.2229C1.08952 27.1743 1.35521 28.1079 1.701 29.0129C1.787 29.2529 1.875 29.4929 1.963 29.7339C2.192 30.3589 2.429 31.0039 2.616 31.6199C2.86394 32.3542 3.0021 33.1212 3.026 33.8959C3.00151 34.6702 2.86337 35.4367 2.616 36.1709C2.429 36.7859 2.193 37.4299 1.965 38.0519C1.876 38.2949 1.787 38.5369 1.701 38.7779C1.35508 39.6832 1.08939 40.6171 0.907002 41.5689C0.711307 42.554 0.764237 43.5724 1.061 44.5319C1.3959 45.4758 1.9642 46.3197 2.713 46.9849C3.42244 47.6239 4.18785 48.1979 5 48.6999C5.22 48.8409 5.442 48.9809 5.664 49.1219C6.221 49.4739 6.748 49.8059 7.237 50.1559C7.83375 50.5515 8.36429 51.0388 8.809 51.5999C9.20907 52.1902 9.51286 52.8403 9.709 53.5259C9.897 54.1079 10.055 54.7259 10.223 55.3709C10.2837 55.6076 10.3453 55.8442 10.408 56.0809C10.6329 56.9985 10.9387 57.8944 11.322 58.7579C11.374 58.8679 11.428 58.9749 11.483 59.0789L2.413 76.1209C2.30514 76.3277 2.26346 76.5627 2.2936 76.7941C2.32373 77.0254 2.42423 77.2419 2.58148 77.4142C2.73873 77.5865 2.94514 77.7063 3.17275 77.7574C3.40036 77.8085 3.63818 77.7884 3.854 77.6999L14.921 73.0999L17.284 84.8519C17.3308 85.0814 17.4472 85.291 17.6174 85.452C17.7876 85.6131 18.0032 85.7178 18.235 85.7519C18.29 85.7598 18.3455 85.7638 18.401 85.7639C18.6063 85.7633 18.8076 85.7072 18.9836 85.6016C19.1596 85.496 19.3039 85.3447 19.401 85.1639L29.4 66.3879C29.613 66.5189 29.83 66.6439 30.051 66.7589C30.9479 67.2767 31.9653 67.5493 33.001 67.5493C34.0367 67.5493 35.0541 67.2767 35.951 66.7589C36.172 66.6439 36.389 66.5189 36.602 66.3879L46.6 85.1619C46.7102 85.3689 46.8817 85.5367 47.091 85.6425C47.3002 85.7484 47.5371 85.7869 47.7691 85.753C48.0011 85.7191 48.217 85.6143 48.3872 85.453C48.5574 85.2917 48.6737 85.0818 48.72 84.8519L51.078 73.0999L62.146 77.6999C62.3626 77.7896 62.6017 77.8103 62.8305 77.759C63.0593 77.7078 63.2668 77.5873 63.4245 77.4138C63.5822 77.2403 63.6826 77.0223 63.7118 76.7897C63.7411 76.5571 63.6979 76.321 63.588 76.1139L54.518 59.0719C54.573 58.9719 54.627 58.8609 54.679 58.7509C55.0627 57.8876 55.3683 56.9917 55.592 56.0739C55.656 55.8369 55.717 55.5999 55.778 55.3619C55.946 54.7129 56.104 54.1009 56.292 53.5189C56.4877 52.8331 56.7915 52.183 57.192 51.5929C57.6364 51.0319 58.1666 50.5446 58.763 50.1489C59.253 49.7989 59.781 49.4649 60.339 49.1129C60.56 48.9729 60.781 48.8329 61 48.6919C61.812 48.1912 62.5774 47.6185 63.287 46.9809C64.0357 46.3156 64.604 45.4718 64.939 44.5279C65.2358 43.568 65.2887 42.5493 65.093 41.5639C64.9101 40.6139 64.6448 39.6818 64.3 38.7779ZM18.889 81.2859L16.88 71.2929C16.8468 71.128 16.7774 70.9725 16.6769 70.8376C16.5764 70.7027 16.4473 70.5917 16.2988 70.5126C16.1503 70.4335 15.9862 70.3883 15.8181 70.3803C15.6501 70.3722 15.4824 70.4014 15.327 70.4659L5.915 74.3809L13.042 60.9909L13.122 61.0549C13.933 61.6235 14.8751 61.9769 15.86 62.0819C16.802 62.1895 17.7517 62.2136 18.698 62.1539L19.432 62.1189C20.109 62.0839 20.75 62.0529 21.37 62.0579C22.099 62.0398 22.8264 62.1353 23.526 62.3409C24.2182 62.6002 24.8672 62.9626 25.451 63.4159C25.928 63.7609 26.401 64.1419 26.902 64.5449C27.111 64.7129 27.321 64.8819 27.532 65.0449L18.889 81.2859ZM50.673 70.4659C50.5176 70.4014 50.3499 70.3722 50.1819 70.3803C50.0138 70.3883 49.8497 70.4335 49.7012 70.5126C49.5527 70.5917 49.4236 70.7027 49.3231 70.8376C49.2226 70.9725 49.1532 71.128 49.12 71.2929L47.111 81.2859L38.468 65.0479C38.678 64.8819 38.888 64.7139 39.097 64.5479C39.597 64.1479 40.072 63.7629 40.549 63.4179C41.133 62.9648 41.7819 62.6024 42.474 62.3429C43.1735 62.1368 43.901 62.0413 44.63 62.0599C45.253 62.0539 45.891 62.0859 46.569 62.1209L47.302 62.1559C48.2486 62.2161 49.1987 62.192 50.141 62.0839C51.1256 61.9787 52.0673 61.6254 52.878 61.0569L52.958 60.9929L60.085 74.3829L50.673 70.4659ZM61.205 36.8329C61.411 37.5109 61.659 38.1869 61.899 38.8409C61.985 39.0759 62.071 39.3119 62.155 39.5409C62.4539 40.3196 62.6854 41.1226 62.847 41.9409C62.9779 42.5591 62.9542 43.2001 62.778 43.8069C62.559 44.3916 62.1974 44.9124 61.726 45.3219C61.1167 45.8633 60.4609 46.3499 59.766 46.7759C59.553 46.9139 59.337 47.0499 59.122 47.1859C58.561 47.5409 57.981 47.9069 57.439 48.2949C55.8054 49.3321 54.6225 50.9466 54.126 52.8169C53.917 53.4639 53.743 54.1379 53.574 54.7909C53.514 55.0229 53.454 55.2549 53.393 55.4849C53.2027 56.2703 52.9441 57.0376 52.62 57.7779C52.4039 58.3526 52.025 58.8518 51.5297 59.2146C51.0344 59.5774 50.4441 59.7881 49.831 59.8209C49.0237 59.9087 48.2103 59.9261 47.4 59.8729C47.162 59.8629 46.922 59.8509 46.683 59.8389C46.003 59.8049 45.299 59.7699 44.61 59.7749C43.6432 59.7566 42.6796 59.8916 41.755 60.1749C40.8417 60.5051 39.9846 60.9739 39.214 61.5649C38.69 61.9449 38.171 62.3649 37.669 62.7649C37.441 62.9489 37.2117 63.1322 36.981 63.3149C36.3315 63.8513 35.635 64.3282 34.9 64.7399C34.3276 65.0887 33.6703 65.2732 33 65.2732C32.3297 65.2732 31.6724 65.0887 31.1 64.7399C30.3649 64.331 29.6681 63.8568 29.018 63.3229C28.787 63.1409 28.557 62.9559 28.328 62.7709C27.828 62.3709 27.309 61.9509 26.785 61.5709C26.0145 60.9797 25.1574 60.5108 24.244 60.1809C23.3194 59.8976 22.3558 59.7626 21.389 59.7809H21.234C20.595 59.7809 19.945 59.8129 19.316 59.8449C19.077 59.8569 18.838 59.8689 18.6 59.8789C17.7894 59.9321 16.9756 59.9147 16.168 59.8269C15.5549 59.7941 14.9646 59.5834 14.4693 59.2206C13.974 58.8578 13.5952 58.3586 13.379 57.7839C13.0552 57.0435 12.7966 56.2762 12.606 55.4909C12.5453 55.2609 12.485 55.0299 12.425 54.7979C12.256 54.1449 12.082 53.4699 11.873 52.8229C11.6046 51.9049 11.1896 51.0364 10.644 50.2509C10.0585 49.4936 9.35522 48.8352 8.561 48.3009C8.018 47.9139 7.44 47.5479 6.88 47.1939C6.664 47.0579 6.447 46.9209 6.233 46.7829C5.53835 46.3562 4.8825 45.8693 4.273 45.3279C3.80191 44.9185 3.44033 44.3982 3.221 43.8139C3.04547 43.207 3.02143 42.5663 3.151 41.9479C3.31283 41.1295 3.54469 40.3266 3.844 39.5479C3.928 39.3119 4.015 39.0749 4.102 38.8379C4.341 38.1859 4.588 37.5109 4.794 36.8379C5.10819 35.8893 5.27874 34.899 5.3 33.8999C5.27791 32.9007 5.10669 31.9105 4.792 30.9619C4.586 30.2839 4.338 29.6079 4.098 28.9549C4.012 28.7189 3.926 28.4839 3.842 28.2489C3.54277 27.4702 3.31092 26.6672 3.149 25.8489C3.0189 25.2302 3.04293 24.5891 3.219 23.9819C3.43833 23.3976 3.79991 22.8772 4.271 22.4679C4.88052 21.9268 5.53637 21.4403 6.231 21.0139C6.445 20.8759 6.662 20.7389 6.878 20.6019C7.438 20.2479 8.016 19.8829 8.559 19.4949C9.35322 18.9606 10.0565 18.3022 10.642 17.5449C11.188 16.7596 11.6031 15.891 11.871 14.9729C12.08 14.3259 12.254 13.6519 12.423 12.9999C12.483 12.7679 12.542 12.5349 12.604 12.2999C12.7944 11.5145 13.0531 10.7473 13.377 10.0069C13.6138 9.44503 13.9879 8.95161 14.465 8.57189C14.9722 8.23087 15.5566 8.02188 16.165 7.96389C16.9726 7.87608 17.7864 7.85868 18.597 7.91189C18.837 7.92189 19.078 7.93389 19.319 7.94589C19.997 7.98089 20.698 8.01489 21.386 8.00989C22.3528 8.02769 23.3163 7.89269 24.241 7.60989C25.1543 7.27914 26.0113 6.81 26.782 6.21889C27.306 5.83989 27.825 5.41889 28.327 5.01889C28.555 4.83356 28.7843 4.64989 29.015 4.46789C29.6662 3.93407 30.364 3.45983 31.1 3.05089C31.6723 2.70186 32.3297 2.51721 33 2.51721C33.6703 2.51721 34.3277 2.70186 34.9 3.05089C35.6349 3.46011 36.3317 3.93434 36.982 4.46789C37.212 4.64989 37.442 4.83489 37.671 5.01889C38.171 5.41889 38.691 5.83989 39.215 6.21889C39.9856 6.8102 40.8426 7.27936 41.756 7.60989C42.6807 7.89276 43.6442 8.02776 44.611 8.00989C45.297 8.01489 46 7.98089 46.678 7.94589C46.92 7.93389 47.16 7.92189 47.4 7.91189C48.2106 7.85869 49.0244 7.87609 49.832 7.96389C50.4404 8.02188 51.0248 8.23087 51.532 8.57189C52.0088 8.95185 52.3829 9.4452 52.62 10.0069C52.9438 10.7473 53.2024 11.5146 53.393 12.2999C53.454 12.5299 53.514 12.7619 53.574 12.9939C53.743 13.6459 53.917 14.3209 54.126 14.9679C54.3944 15.8859 54.8094 16.7544 55.355 17.5399C55.9402 18.2974 56.6436 18.9558 57.438 19.4899C57.98 19.8779 58.559 20.2429 59.118 20.5969C59.335 20.7339 59.552 20.8709 59.766 21.0089C60.4613 21.4346 61.1173 21.9215 61.726 22.4639C62.1975 22.8728 62.5592 23.3933 62.778 23.9779C62.9542 24.5847 62.9779 25.2257 62.847 25.8439C62.6856 26.6623 62.454 27.4652 62.155 28.2439C62.071 28.4789 61.985 28.7139 61.899 28.9499C61.659 29.6039 61.411 30.2799 61.205 30.9569C60.8908 31.9072 60.7205 32.8992 60.7 33.8999C60.7215 34.8972 60.8917 35.8858 61.205 36.8329ZM33 13.4899C28.9642 13.4899 25.0191 14.6866 21.6635 16.9286C18.3078 19.1707 15.6923 22.3575 14.1477 26.0859C12.6031 29.8144 12.1988 33.9172 12.9858 37.8754C13.7729 41.8337 15.7159 45.4697 18.5694 48.3237C21.4228 51.1777 25.0584 53.1215 29.0165 53.9093C32.9747 54.6971 37.0775 54.2936 40.8063 52.7497C44.535 51.2059 47.7223 48.591 49.965 45.2358C52.2078 41.8805 53.4052 37.9356 53.406 33.8999C53.401 28.4891 51.2496 23.3012 47.4239 19.4748C43.5982 15.6484 38.4108 13.496 33 13.4899ZM33 52.0249C29.4143 52.0249 25.909 50.9615 22.9277 48.9693C19.9463 46.9771 17.6226 44.1455 16.2506 40.8326C14.8786 37.5198 14.5198 33.8744 15.2196 30.3576C15.9195 26.8408 17.6465 23.6106 20.1823 21.0753C22.7181 18.5401 25.9487 16.8138 29.4657 16.1147C32.9826 15.4157 36.6279 15.7753 39.9404 17.148C43.253 18.5208 46.0841 20.845 48.0757 23.8269C50.0672 26.8087 51.1298 30.3141 51.129 33.8999C51.1224 38.7056 49.2101 43.3125 45.8116 46.7103C42.4131 50.1081 37.8057 52.0193 33 52.0249ZM33 26.8739C31.3432 25.9238 29.4125 25.5656 27.5252 25.8582C25.6379 26.1508 23.9063 27.0768 22.615 28.4839C21.9126 29.1933 21.3714 30.0457 21.028 30.983C20.6846 31.9203 20.5471 32.9207 20.625 33.9159C21.078 38.3699 26.018 42.0419 29.987 44.9929C30.836 45.6239 31.638 46.2199 32.28 46.7449C32.4835 46.9104 32.7377 47.0007 33 47.0007C33.2623 47.0007 33.5165 46.9104 33.72 46.7449C34.399 46.1899 35.22 45.5759 36.091 44.9249C40.036 41.9759 44.945 38.3049 45.391 33.9119C45.4657 32.9167 45.3258 31.9171 44.9807 30.9806C44.6357 30.0442 44.0935 29.1927 43.391 28.4839C42.0991 27.0756 40.3664 26.149 38.4779 25.8564C36.5894 25.5638 34.6575 25.9226 33 26.8739ZM43.121 33.6849C42.78 37.0849 38.126 40.5609 34.728 43.1019C34.121 43.5559 33.537 43.9929 32.999 44.4099C32.488 44.0149 31.927 43.5989 31.345 43.1659C27.925 40.6239 23.245 37.1419 22.89 33.6859C22.8458 33.0055 22.9497 32.3236 23.1945 31.6873C23.4393 31.0509 23.8192 30.4752 24.308 29.9999C25.3142 28.9076 26.6836 28.219 28.1605 28.0627C29.6373 27.9065 31.1206 28.2933 32.333 29.1509C32.5262 29.2889 32.7576 29.363 32.995 29.363C33.2324 29.363 33.4638 29.2889 33.657 29.1509C34.8694 28.2926 36.3529 27.9054 37.8301 28.0616C39.3073 28.2179 40.677 28.9069 41.683 29.9999C42.1735 30.4744 42.5556 31.0494 42.8029 31.6855C43.0503 32.3216 43.1571 33.0037 43.116 33.6849H43.121Z" fill="#F2672E"/>
</svg>
