<svg width="82" height="86" viewBox="0 0 82 86" fill="none" xmlns="http://www.w3.org/2000/svg">
<path id="Vector" d="M80.782 28.19C80.9315 28.19 81.0794 28.1605 81.2175 28.1033C81.3556 28.0462 81.481 27.9623 81.5867 27.8567C81.6924 27.751 81.7762 27.6255 81.8334 27.4875C81.8906 27.3494 81.92 27.2014 81.92 27.052V22.714C81.9197 22.5086 81.8638 22.3072 81.7581 22.1311C81.6525 21.955 81.5011 21.8109 81.32 21.714L41.538 0.372972C41.3725 0.284387 41.1877 0.238037 41 0.238037C40.8123 0.238037 40.6275 0.284387 40.462 0.372972L0.680021 21.711C0.498966 21.8079 0.34756 21.952 0.241908 22.1281C0.136256 22.3042 0.0803101 22.5056 0.080021 22.711V27.049C0.0796264 27.1987 0.108771 27.347 0.165784 27.4854C0.222797 27.6238 0.306558 27.7496 0.412271 27.8556C0.517983 27.9616 0.643569 28.0457 0.781834 28.1031C0.920098 28.1604 1.06832 28.19 1.21802 28.19H11.905V45.908H4.28602C3.73541 45.9088 3.20758 46.1278 2.81824 46.5172C2.4289 46.9065 2.20981 47.4344 2.20902 47.985V63.571H1.21802C0.916205 63.571 0.62675 63.6909 0.413334 63.9043C0.199918 64.1177 0.080021 64.4072 0.080021 64.709V77.2C0.080021 77.5018 0.199918 77.7912 0.413334 78.0047C0.62675 78.2181 0.916205 78.338 1.21802 78.338H4.78302C4.98416 80.3707 5.93396 82.2561 7.4478 83.6275C8.96163 84.9989 10.9313 85.7585 12.974 85.7585C15.0167 85.7585 16.9864 84.9989 18.5002 83.6275C20.0141 82.2561 20.9639 80.3707 21.165 78.338H60.165C60.3662 80.3707 61.316 82.2561 62.8298 83.6275C64.3436 84.9989 66.3133 85.7585 68.356 85.7585C70.3987 85.7585 72.3684 84.9989 73.8822 83.6275C75.3961 82.2561 76.3459 80.3707 76.547 78.338H80.784C81.0855 78.3374 81.3744 78.2173 81.5874 78.004C81.8004 77.7906 81.92 77.5014 81.92 77.2V58.572C81.9201 58.4036 81.8829 58.2373 81.811 58.085L73.969 41.521C73.8769 41.3261 73.7312 41.1614 73.549 41.0461C73.3668 40.9309 73.1556 40.8698 72.94 40.87H70.1V28.19H80.782ZM2.35602 23.4L41 2.66797L79.644 23.4V25.919H2.35602V23.4ZM11.134 48.189H12.681V51.67H11.134V48.189ZM4.48502 48.189H8.85702V52.8C8.85676 52.9501 8.88616 53.0987 8.94353 53.2374C9.0009 53.3761 9.08511 53.502 9.19133 53.6081C9.29755 53.7141 9.42367 53.7981 9.56245 53.8552C9.70123 53.9124 9.84994 53.9415 10 53.941H13.82C13.9697 53.9408 14.1178 53.9112 14.2561 53.8538C14.3943 53.7964 14.5198 53.7123 14.6255 53.6063C14.7312 53.5003 14.8149 53.3746 14.872 53.2362C14.9291 53.0979 14.9583 52.9496 14.958 52.8V48.184H19.7V63.571H4.48502V48.189ZM63.06 40.87H55.455C55.1532 40.87 54.8638 40.9899 54.6503 41.2033C54.4369 41.4167 54.317 41.7062 54.317 42.008V45.908H18.924V33.151H63.06V40.87ZM26.351 48.184V52.8C26.3513 53.1017 26.4713 53.391 26.6846 53.6044C26.898 53.8177 27.1873 53.9377 27.489 53.938H31.313C31.6148 53.938 31.9043 53.8181 32.1177 53.6047C32.3311 53.3912 32.451 53.1018 32.451 52.8V48.184H37.2V63.571H21.979V48.184H26.351ZM28.627 48.184H30.175V51.665H28.627V48.184ZM39.473 48.184H43.845V52.8C43.845 53.1018 43.9649 53.3912 44.1783 53.6047C44.3918 53.8181 44.6812 53.938 44.983 53.938H48.807C48.9565 53.938 49.1044 53.9085 49.2425 53.8513C49.3806 53.7942 49.506 53.7103 49.6117 53.6047C49.7174 53.499 49.8012 53.3735 49.8584 53.2355C49.9156 53.0974 49.945 52.9494 49.945 52.8V48.184H54.317V63.571H39.473V48.184ZM46.121 48.184H47.669V51.665H46.121V48.184ZM2.35602 65.847H54.317V76.061H21.071C20.7277 74.1637 19.729 72.4473 18.2492 71.2113C16.7694 69.9752 14.9026 69.2981 12.9745 69.2981C11.0464 69.2981 9.1796 69.9752 7.69983 71.2113C6.22006 72.4473 5.22135 74.1637 4.87802 76.061H2.35602V65.847ZM12.974 83.486C11.7962 83.486 10.6449 83.1367 9.6656 82.4824C8.68631 81.828 7.92304 80.898 7.47232 79.8099C7.0216 78.7217 6.90367 77.5244 7.13344 76.3692C7.36322 75.2141 7.93038 74.153 8.7632 73.3202C9.59602 72.4873 10.6571 71.9202 11.8123 71.6904C12.9674 71.4606 14.1648 71.5785 15.2529 72.0293C16.341 72.48 17.2711 73.2433 17.9254 74.2225C18.5798 75.2018 18.929 76.3532 18.929 77.531C18.9274 79.1098 18.2995 80.6236 17.1831 81.74C16.0667 82.8565 14.5529 83.4844 12.974 83.486ZM68.354 83.486C67.1762 83.4862 66.0247 83.1371 65.0453 82.4829C64.0659 81.8286 63.3025 80.8987 62.8516 79.8105C62.4007 78.7224 62.2827 77.525 62.5123 76.3698C62.742 75.2146 63.3091 74.1534 64.1418 73.3205C64.9746 72.4876 66.0357 71.9203 67.1909 71.6905C68.3461 71.4606 69.5435 71.5785 70.6317 72.0292C71.7199 72.4799 72.65 73.2431 73.3044 74.2224C73.9587 75.2018 74.308 76.3531 74.308 77.531C74.3064 79.1097 73.6787 80.6233 72.5624 81.7397C71.4462 82.8561 69.9327 83.4841 68.354 83.486ZM79.644 58.828V76.061H76.45C76.1067 74.1637 75.108 72.4473 73.6282 71.2113C72.1484 69.9752 70.2816 69.2981 68.3535 69.2981C66.4254 69.2981 64.5586 69.9752 63.0788 71.2113C61.5991 72.4473 60.6004 74.1637 60.257 76.061H56.594V43.146H72.22L79.644 58.828ZM67.819 40.87H65.336V32.012C65.3358 31.7106 65.2161 31.4216 65.0031 31.2083C64.7902 30.995 64.5014 30.8748 64.2 30.874H17.785C17.4833 30.8742 17.194 30.9942 16.9806 31.2076C16.7673 31.4209 16.6473 31.7102 16.647 32.012V45.912H14.181V28.19H67.819V40.87ZM41 10.879C39.9132 10.8788 38.8507 11.2009 37.9469 11.8046C37.0431 12.4082 36.3386 13.2664 35.9226 14.2704C35.5065 15.2745 35.3976 16.3794 35.6095 17.4454C35.8214 18.5114 36.3447 19.4906 37.1131 20.2592C37.8816 21.0278 38.8607 21.5512 39.9266 21.7633C40.9926 21.9754 42.0975 21.8667 43.1016 21.4508C44.1058 21.0349 44.964 20.3306 45.5679 19.4269C46.1717 18.5233 46.494 17.4608 46.494 16.374C46.4927 14.9172 45.9135 13.5204 44.8835 12.4902C43.8535 11.46 42.4568 10.8806 41 10.879ZM41 19.592C40.3636 19.592 39.7414 19.4032 39.2122 19.0496C38.683 18.696 38.2705 18.1935 38.027 17.6054C37.7834 17.0174 37.7197 16.3704 37.8439 15.7462C37.968 15.1219 38.2745 14.5485 38.7246 14.0985C39.1746 13.6485 39.748 13.342 40.3722 13.2178C40.9965 13.0936 41.6435 13.1574 42.2315 13.4009C42.8195 13.6445 43.3221 14.0569 43.6757 14.5861C44.0293 15.1153 44.218 15.7375 44.218 16.374C44.217 17.2271 43.8776 18.045 43.2743 18.6483C42.6711 19.2515 41.8532 19.5909 41 19.592ZM60.292 59.71H75.273C75.4634 59.7097 75.6507 59.6617 75.8177 59.5703C75.9847 59.479 76.1262 59.3471 76.2291 59.1869C76.3319 59.0267 76.393 58.8433 76.4066 58.6534C76.4202 58.4635 76.386 58.2732 76.307 58.1L70.913 46.369C70.8221 46.1712 70.6763 46.0036 70.493 45.8861C70.3098 45.7686 70.0967 45.7061 69.879 45.706H60.292C59.9901 45.7062 59.7007 45.8264 59.4873 46.0399C59.2739 46.2535 59.154 46.5431 59.154 46.845V58.572C59.154 58.8738 59.2739 59.1632 59.4873 59.3767C59.7008 59.5901 59.9902 59.71 60.292 59.71ZM61.43 47.983H69.149L73.5 57.434H61.43V47.983ZM68.354 74.614C67.777 74.6138 67.213 74.7847 66.7332 75.1051C66.2533 75.4255 65.8793 75.881 65.6584 76.414C65.4374 76.947 65.3795 77.5335 65.492 78.0994C65.6044 78.6653 65.8821 79.1852 66.29 79.5932C66.698 80.0013 67.2177 80.2792 67.7836 80.3918C68.3494 80.5045 68.936 80.4468 69.4691 80.226C70.0022 80.0053 70.4578 79.6314 70.7784 79.1517C71.0989 78.672 71.27 78.1079 71.27 77.531C71.2692 76.7578 70.9618 76.0164 70.4151 75.4696C69.8685 74.9227 69.1272 74.615 68.354 74.614ZM68.354 78.172C68.2272 78.1722 68.1032 78.1347 67.9976 78.0644C67.8921 77.9941 67.8098 77.8941 67.7611 77.777C67.7124 77.6599 67.6996 77.5309 67.7242 77.4065C67.7488 77.2821 67.8098 77.1678 67.8994 77.0781C67.989 76.9883 68.1032 76.9272 68.2276 76.9024C68.352 76.8775 68.4809 76.8902 68.5981 76.9387C68.7153 76.9872 68.8154 77.0693 68.8859 77.1747C68.9564 77.2802 68.994 77.4041 68.994 77.531C68.9938 77.7007 68.9263 77.8635 68.8063 77.9836C68.6864 78.1037 68.5238 78.1714 68.354 78.172ZM12.974 74.614C12.3971 74.614 11.8331 74.785 11.3534 75.1056C10.8737 75.4261 10.4998 75.8817 10.2791 76.4147C10.0583 76.9477 10.0005 77.5342 10.1131 78.1C10.2256 78.6659 10.5034 79.1856 10.9114 79.5936C11.3193 80.0015 11.8391 80.2794 12.4049 80.3919C12.9708 80.5045 13.5573 80.4467 14.0903 80.2259C14.6233 80.0051 15.0789 79.6313 15.3994 79.1516C15.7199 78.6719 15.891 78.1079 15.891 77.531C15.8902 76.7576 15.5826 76.0161 15.0358 75.4692C14.4889 74.9223 13.7474 74.6148 12.974 74.614ZM12.974 78.172C12.8472 78.172 12.7233 78.1344 12.6179 78.0639C12.5125 77.9935 12.4303 77.8934 12.3818 77.7763C12.3333 77.6591 12.3206 77.5303 12.3453 77.4059C12.3701 77.2816 12.4311 77.1674 12.5208 77.0777C12.6104 76.9881 12.7246 76.927 12.849 76.9023C12.9733 76.8775 13.1022 76.8903 13.2193 76.9388C13.3364 76.9873 13.4366 77.0694 13.507 77.1749C13.5774 77.2803 13.615 77.4042 13.615 77.531C13.615 77.6151 13.5984 77.6985 13.5662 77.7763C13.534 77.854 13.4868 77.9247 13.4273 77.9842C13.3678 78.0437 13.2971 78.091 13.2193 78.1232C13.1416 78.1554 13.0582 78.172 12.974 78.172Z" fill="#F2672E"/>
</svg>
