<svg width="86" height="86" viewBox="0 0 86 86" fill="none" xmlns="http://www.w3.org/2000/svg">
<path id="Vector" d="M85.749 81.688C85.6048 77.2373 83.7354 73.0171 80.536 69.9198C77.3366 66.8224 73.0581 65.0906 68.605 65.0906C64.152 65.0906 59.8734 66.8224 56.6741 69.9198C53.4747 73.0171 51.6052 77.2373 51.461 81.688L51.436 82.495L52.188 82.785C62.7728 86.7544 74.4372 86.7544 85.022 82.785L85.774 82.495L85.749 81.688ZM68.605 83.488C63.5551 83.5011 58.5408 82.6439 53.782 80.954C54.102 77.2432 55.8022 73.7873 58.5467 71.2692C61.2912 68.7512 64.8804 67.3541 68.605 67.3541C72.3297 67.3541 75.9188 68.7512 78.6633 71.2692C81.4078 73.7873 83.108 77.2432 83.428 80.954C78.6691 82.6432 73.6548 83.4997 68.605 83.486V83.488ZM60.205 55.388C60.2048 56.9209 60.6592 58.4194 61.5106 59.694C62.3621 60.9686 63.5724 61.9621 64.9885 62.5488C66.4046 63.1356 67.9629 63.2892 69.4664 62.9902C70.9698 62.6913 72.3508 61.9533 73.4347 60.8695C74.5187 59.7857 75.2569 58.4047 75.556 56.9014C75.8551 55.398 75.7017 53.8397 75.1152 52.4235C74.5286 51.0073 73.5353 49.7968 72.2608 48.9452C70.9863 48.0936 69.4879 47.639 67.955 47.639C65.9012 47.6414 63.9321 48.458 62.4793 49.9098C61.0266 51.3616 60.2087 53.3302 60.205 55.384V55.388ZM73.428 55.388C73.428 56.4705 73.107 57.5286 72.5056 58.4287C71.9043 59.3287 71.0495 60.0302 70.0494 60.4444C69.0494 60.8587 67.9489 60.9671 66.8873 60.7559C65.8256 60.5447 64.8504 60.0234 64.085 59.258C63.3196 58.4926 62.7984 57.5174 62.5872 56.4558C62.376 55.3941 62.4844 54.2937 62.8986 53.2936C63.3129 52.2936 64.0144 51.4388 64.9144 50.8374C65.8144 50.236 66.8726 49.915 67.955 49.915C69.4054 49.9166 70.7959 50.4932 71.8218 51.5184C72.8478 52.5436 73.4254 53.9337 73.428 55.384V55.388ZM46.579 52.593C46.8807 52.5928 47.1701 52.4728 47.3834 52.2594C47.5968 52.0461 47.7168 51.7568 47.717 51.455V1.37604C47.717 1.07422 47.5971 0.784766 47.3837 0.57135C47.1703 0.357934 46.8808 0.238038 46.579 0.238038H21.363C21.2135 0.237906 21.0655 0.267251 20.9274 0.324395C20.7892 0.381538 20.6637 0.465358 20.558 0.571057C20.4523 0.676756 20.3685 0.80226 20.3114 0.940388C20.2542 1.07852 20.2249 1.22656 20.225 1.37604V12.432H1.36401C1.21449 12.432 1.06642 12.4615 0.928289 12.5188C0.790155 12.576 0.664658 12.6599 0.558972 12.7657C0.453286 12.8715 0.369483 12.9971 0.312352 13.1352C0.255221 13.2734 0.225882 13.4215 0.226014 13.571V51.455C0.226014 51.7569 0.34591 52.0463 0.559326 52.2597C0.772743 52.4731 1.0622 52.593 1.36401 52.593H46.579ZM36.159 50.317H31.783V41.537H36.159V50.317ZM2.50001 14.709H20.225V50.317H2.50001V14.709ZM22.5 50.317V2.51404H45.44V50.314H38.435V40.4C38.4355 40.0984 38.3163 39.8089 38.1035 39.5951C37.8906 39.3814 37.6017 39.2608 37.3 39.26H30.645C30.4954 39.26 30.3472 39.2895 30.2089 39.3468C30.0707 39.4041 29.945 39.4881 29.8393 39.594C29.7335 39.6999 29.6496 39.8256 29.5924 39.9639C29.5352 40.1022 29.5059 40.2504 29.506 40.4V50.318H22.506L22.5 50.317ZM29.255 10.969H26.979V8.56904H29.256L29.255 10.969ZM35.108 10.969H32.833V8.56904H35.109L35.108 10.969ZM40.961 10.969H38.686V8.56904H40.962L40.961 10.969ZM29.256 16.985H26.979V14.585H29.256V16.985ZM35.109 16.985H32.833V14.585H35.109V16.985ZM40.962 16.985H38.686V14.585H40.962V16.985ZM29.256 23H26.979V20.6H29.256V23ZM35.109 23H32.833V20.6H35.109V23ZM40.962 23H38.686V20.6H40.962V23ZM29.256 29.017H26.979V26.617H29.256V29.017ZM35.109 29.017H32.833V26.617H35.109V29.017ZM40.962 29.017H38.686V26.617H40.962V29.017ZM29.256 35.033H26.979V32.633H29.256V35.033ZM35.109 35.033H32.833V32.633H35.109V35.033ZM40.962 35.033H38.686V32.633H40.962V35.033ZM7.30001 20.272H9.57601V22.672H7.30001V20.272ZM15.429 20.272V22.672H13.152V20.272H15.429ZM7.30001 26.288H9.57601V28.688H7.30001V26.288ZM13.153 26.288H15.429V28.688H13.152L13.153 26.288ZM7.30001 32.3H9.57601V34.7H7.30001V32.3ZM13.153 32.3H15.429V34.7H13.152L13.153 32.3ZM7.30001 38.32H9.57601V40.72H7.30001V38.32ZM13.153 38.32H15.429V40.72H13.152L13.153 38.32ZM7.30001 44.336H9.57601V46.736H7.30001V44.336ZM13.153 44.336H15.429V46.736H13.152L13.153 44.336ZM52.753 25.145C52.74 24.9962 52.7564 24.8462 52.8014 24.7037C52.8464 24.5612 52.919 24.4289 53.0151 24.3145C53.1112 24.2001 53.229 24.1057 53.3616 24.0368C53.4942 23.9679 53.6391 23.9259 53.788 23.913C54.547 23.847 55.319 23.813 56.081 23.813C60.5059 23.8122 64.86 24.9231 68.7436 27.0438C72.6272 29.1645 75.9156 32.227 78.307 35.95L78.975 32.498C79.0323 32.2017 79.205 31.9402 79.4551 31.7711C79.7051 31.602 80.0121 31.5393 80.3085 31.5965C80.6049 31.6538 80.8664 31.8265 81.0354 32.0766C81.2045 32.3267 81.2673 32.6337 81.21 32.93L79.953 39.43C79.9247 39.5767 79.8678 39.7164 79.7855 39.8411C79.7031 39.9658 79.597 40.073 79.4732 40.1566C79.3494 40.2402 79.2103 40.2985 79.0639 40.3283C78.9175 40.3581 78.7667 40.3586 78.62 40.33L72.12 39.074C71.8236 39.0166 71.5622 38.8438 71.3932 38.5936C71.2243 38.3435 71.1616 38.0364 71.219 37.74C71.2764 37.4437 71.4492 37.1822 71.6994 37.0133C71.9496 36.8443 72.2566 36.7816 72.553 36.839L76.676 37.639C74.5257 34.105 71.4999 31.1857 67.8911 29.1634C64.2823 27.1411 60.2128 26.0842 56.076 26.095C55.376 26.095 54.676 26.126 53.976 26.186C53.827 26.1984 53.6771 26.1812 53.5347 26.1356C53.3923 26.0899 53.2604 26.0166 53.1463 25.92C53.0323 25.8233 52.9384 25.7051 52.8701 25.5721C52.8017 25.4392 52.7603 25.294 52.748 25.145H52.753ZM48.253 74.309C48.2005 74.449 48.1208 74.5772 48.0187 74.6864C47.9166 74.7955 47.7939 74.8835 47.6578 74.9453C47.5217 75.007 47.3747 75.0413 47.2253 75.0463C47.0759 75.0512 46.9269 75.0267 46.787 74.974C40.2643 72.533 34.9727 67.6099 32.068 61.28L30.889 64.558C30.7869 64.8421 30.5761 65.0739 30.3031 65.2026C30.03 65.3312 29.7171 65.3462 29.433 65.244C29.149 65.1419 28.9171 64.9312 28.7885 64.6581C28.6598 64.3851 28.6449 64.0721 28.747 63.788L30.987 57.562C31.0376 57.4214 31.1153 57.2921 31.2159 57.1815C31.3164 57.0709 31.4377 56.9812 31.5729 56.9175C31.7081 56.8538 31.8546 56.8173 32.0038 56.8102C32.1531 56.8031 32.3024 56.8255 32.443 56.876L38.669 59.117C38.8132 59.1648 38.9464 59.2409 39.0607 59.3409C39.1751 59.4409 39.2682 59.5628 39.3347 59.6994C39.4011 59.836 39.4396 59.9845 39.4478 60.1361C39.456 60.2878 39.4337 60.4396 39.3823 60.5825C39.3309 60.7255 39.2514 60.8567 39.1485 60.9684C39.0456 61.0801 38.9213 61.1701 38.7831 61.2331C38.6449 61.296 38.4954 61.3307 38.3436 61.3349C38.1917 61.3392 38.0406 61.3131 37.899 61.258L33.912 59.824C35.1963 62.8025 37.069 65.491 39.4176 67.7281C41.7663 69.9653 44.5426 71.705 47.58 72.843C47.72 72.8956 47.8482 72.9752 47.9573 73.0774C48.0665 73.1795 48.1545 73.3021 48.2162 73.4383C48.278 73.5744 48.3123 73.7214 48.3173 73.8708C48.3222 74.0202 48.2976 74.1691 48.245 74.309H48.253Z" fill="#F2672E"/>
</svg>
