<svg width="24" height="21" viewBox="0 0 24 21" fill="none" xmlns="http://www.w3.org/2000/svg">
<g id="Group">
<path id="Vector" d="M22.2991 1.66078C21.165 0.553435 19.5983 0 17.5981 0C17.0445 0 16.4796 0.0959764 15.9038 0.287835C15.3278 0.479835 14.792 0.738868 14.2969 1.06475C13.8012 1.39053 13.3751 1.69647 13.0177 1.9821C12.6608 2.26783 12.3214 2.57147 12 2.8928C11.6785 2.57147 11.3392 2.26783 10.9822 1.9821C10.6249 1.69647 10.1987 1.39072 9.70304 1.06475C9.20749 0.738727 8.67174 0.479882 8.09588 0.287835C7.52007 0.0960233 6.95524 0 6.40171 0C4.40164 0 2.83477 0.553576 1.70088 1.66078C0.566992 2.76788 0 4.3035 0 6.26778C0 6.86602 0.105077 7.48231 0.314808 8.11591C0.524539 8.74984 0.763542 9.2901 1.03135 9.73644C1.29911 10.1827 1.60275 10.618 1.94204 11.0421C2.28134 11.4662 2.5293 11.7585 2.68537 11.9192C2.84158 12.0799 2.96438 12.1961 3.05365 12.2676L11.4107 20.3301C11.5714 20.4909 11.7678 20.5714 12 20.5714C12.2321 20.5714 12.4286 20.4909 12.5893 20.3301L20.933 12.2941C22.9777 10.2498 24 8.24088 24 6.26759C24 4.30317 23.4331 2.76769 22.2991 1.66078ZM19.7678 11.0354L12 18.5219L4.21893 11.0219C2.54924 9.35263 1.71453 7.76761 1.71453 6.26759C1.71453 5.54449 1.81051 4.90601 2.00237 4.35257C2.19437 3.79904 2.43989 3.35917 2.73899 3.03329C3.03813 2.70732 3.40191 2.44191 3.83047 2.2364C4.25927 2.03108 4.67887 1.89265 5.08951 1.82125C5.50016 1.74995 5.93759 1.71425 6.40194 1.71425C6.86616 1.71425 7.36626 1.82796 7.90196 2.0557C8.43757 2.28336 8.93087 2.56908 9.38171 2.91278C9.83265 3.25672 10.2188 3.5781 10.5404 3.8771C10.8617 4.17638 11.1295 4.45075 11.3438 4.70078C11.5044 4.89728 11.7234 4.99551 12 4.99551C12.2768 4.99551 12.4955 4.89728 12.6563 4.70078C12.8706 4.45075 13.1385 4.17624 13.4599 3.8771C13.7813 3.5781 14.1675 3.25686 14.6183 2.91278C15.0692 2.56908 15.5625 2.28336 16.0984 2.0557C16.6339 1.82801 17.1342 1.71425 17.5984 1.71425C18.0627 1.71425 18.5 1.74995 18.9108 1.82125C19.3216 1.8926 19.7412 2.03108 20.1699 2.2364C20.5985 2.44186 20.9622 2.70746 21.2613 3.03329C21.5604 3.35917 21.806 3.79904 21.998 4.35257C22.1897 4.90601 22.2857 5.54449 22.2857 6.26759C22.2856 7.76761 21.4464 9.35704 19.7678 11.0354Z" fill="#9D9D9D"/>
</g>
</svg>
